<svg xmlns="http://www.w3.org/2000/svg" xmlns:xlink="http://www.w3.org/1999/xlink" viewBox="0 0 8861.21 3954.75"><defs><style>.cls-1{fill:url(#linear-gradient);}.cls-2{fill:none;}.cls-3{clip-path:url(#clip-path);}.cls-4{mask:url(#mask);}.cls-5{fill:#332c2b;}</style><linearGradient id="linear-gradient" x1="4453.21" y1="7966.07" x2="4453.43" y2="-138.94" gradientUnits="userSpaceOnUse"><stop offset="0" stop-color="#fff"/><stop offset="1"/></linearGradient><clipPath id="clip-path" transform="translate(-22.77 -22.63)"><rect class="cls-2" width="9000" height="4000"/></clipPath><mask id="mask" x="0" y="0" width="8861.21" height="3954.75" maskUnits="userSpaceOnUse"><g transform="translate(-22.77 -22.63)"><rect class="cls-1" x="22.77" y="22.63" width="8861.21" height="3954.75"/></g></mask></defs><g id="Layer_2" data-name="Layer 2"><g id="Layer_1-2" data-name="Layer 1"><g class="cls-3"><g class="cls-4"><path class="cls-5" d="M664,524.16l-74.89-74.42-74.88,74.42-4.73,4.7H396.88V640.75l-4.72,4.69-74.89,74.42,74.89,74.41,4.72,4.7V910.86h112.6l4.73,4.69L589.09,990,664,915.55l4.72-4.69H781.3V799l4.73-4.7,74.88-74.41L786,645.44l-4.73-4.69V528.86H668.7ZM600.5,415.73l81.58,81.06h131.5V627.46l81.57,81.06,11.41,11.34L895.15,731.2l-81.57,81.06V942.93H682.08L600.5,1024l-11.41,11.34L577.68,1024l-81.57-81.06H364.61V812.26L283,731.2l-11.41-11.34L283,708.52l81.57-81.06V496.79h131.5l81.57-81.06,11.41-11.34ZM392.61,1299.18l-75.4,73.93,74.43,75,4.64,4.68,0,6.6-.7,105.35,105.93.7,6.72,0,4.69,4.72,74.4,74.93,75.43-74,4.71-4.62,6.64,0,106,.7.71-105.26,0-6.69,4.75-4.65,75.4-73.93-74.44-75-4.64-4.68,0-6.6.71-105.35-105.94-.7-6.72,0-4.68-4.71-74.4-74.93-75.44,74-4.71,4.61-6.63,0-106-.7-.7,105.27,0,6.67Zm-109.44,62.38L365.3,1281l.77-114.59.1-16,16,.11,115.41.76,82.16-80.56,11.43-11.22,11.32,11.41,81,81.61,115.32.77,16.11.1-.1,15.93L814.13,1284l81.07,81.64L906.48,1377,895,1388.27l-82.12,80.53-.77,114.6-.11,16-16-.11-115.41-.76-82.16,80.56L587,1690.31l-11.32-11.4-81-81.61-115.33-.76-16.11-.11.11-15.93.77-114.68L283,1384.17l-11.29-11.36ZM664,1814l-74.89-74.41L514.21,1814l-4.73,4.7H396.88v111.89l-4.72,4.7-74.89,74.41,74.89,74.42,4.72,4.69v111.89h112.6l4.73,4.7,74.88,74.41L664,2205.36l4.72-4.7H781.3V2088.77l4.73-4.69,74.88-74.42L786,1935.25l-4.73-4.7V1818.66H668.7ZM600.5,1705.53l81.58,81.06h131.5v130.67l81.57,81.06,11.41,11.34L895.15,2021l-81.57,81.06v130.67H682.08l-81.58,81.06-11.41,11.34-11.41-11.34-81.57-81.06H364.61V2102.06L283,2021l-11.41-11.34L283,1998.32l81.57-81.06V1786.59h131.5l81.57-81.06,11.41-11.34ZM392.61,2589l-75.4,73.94,74.43,75,4.64,4.67,0,6.61-.7,105.35,105.93.7,6.72,0,4.69,4.72,74.4,74.93,75.43-74,4.71-4.62,6.64.05,106,.7.71-105.27,0-6.68,4.75-4.65,75.4-73.94-74.44-75-4.64-4.68,0-6.59.71-105.36-105.94-.7-6.72,0-4.68-4.72-74.4-74.92-75.44,74-4.71,4.61-6.63,0-106-.69-.7,105.26,0,6.68Zm-109.44,62.39,82.13-80.53.77-114.6.1-16,16,.1,115.41.77,82.16-80.56,11.43-11.22,11.32,11.41,81,81.61,115.32.76,16.11.1-.1,15.94-.77,114.68,81.07,81.65,11.28,11.35L895,2678.07l-82.12,80.53-.77,114.6-.11,16-16-.1-115.41-.76-82.16,80.55L587,2980.12l-11.32-11.4-81-81.61-115.33-.77-16.11-.11.11-15.92.77-114.69L283,2674l-11.29-11.37ZM664,3103.77l-74.89-74.41-74.88,74.41-4.73,4.7H396.88v111.89l-4.72,4.69-74.89,74.42,74.89,74.41,4.72,4.7v111.89h112.6l4.73,4.7,74.88,74.41L664,3495.17l4.72-4.7H781.3V3378.58l4.73-4.7,74.88-74.41L786,3225.05l-4.73-4.69V3108.47H668.7ZM600.5,2995.34l81.58,81h131.5v130.68l81.57,81.06,11.41,11.34-11.41,11.34-81.57,81.06v130.67H682.08L600.5,3603.6l-11.41,11.34-11.41-11.34-81.57-81.06H364.61V3391.87L283,3310.81l-11.41-11.34L283,3288.13l81.57-81.06V3076.39h131.5l81.57-81L589.09,2984ZM887.19,329.23l-75.4,73.93,74.43,75,4.64,4.68,0,6.6-.7,105.35,105.93.7,6.72,0,4.69,4.72,74.4,74.93,75.44-74,4.7-4.61,6.64,0,106,.7.71-105.27,0-6.67,4.75-4.66,75.4-73.94-74.44-74.95-4.64-4.68,0-6.6.71-105.36-105.94-.69-6.72,0-4.68-4.73-74.4-74.92-75.44,74-4.71,4.62-6.63,0-106-.7L892,317.89l0,6.69ZM777.75,391.61l82.13-80.53.77-114.6.1-16,16,.11,115.41.76,82.16-80.56,11.43-11.21,11.32,11.4,81,81.61,115.32.76,16.11.11-.1,15.93-.77,114.68,81.07,81.65,11.28,11.36-11.47,11.25-82.12,80.53-.77,114.59-.11,16-16-.1-115.41-.76L1093,709.15l-11.44,11.21L1070.24,709l-81-81.61-115.33-.77-16.11-.1.11-15.93.77-114.69-81.07-81.64-11.29-11.36ZM1158.56,844l-74.89-74.41L1008.79,844l-4.73,4.7H891.46V960.6l-4.72,4.69-74.89,74.42,74.89,74.41,4.72,4.7v111.89h112.6l4.73,4.7,74.88,74.41,74.89-74.41,4.72-4.7h112.6V1118.82l4.73-4.7,74.88-74.41-74.88-74.42-4.73-4.69V848.71h-112.6Zm-63.48-108.43,81.58,81.06h131.5V947.31l81.57,81.06,11.41,11.34-11.41,11.34-81.57,81.06v130.67h-131.5l-81.58,81.06-11.41,11.34-11.41-11.34-81.57-81.06H859.19V1132.11l-81.57-81.06-11.42-11.34,11.42-11.34,81.57-81.06V816.64h131.5l81.57-81.06,11.41-11.34ZM887.19,1619,811.79,1693l74.43,75,4.64,4.67,0,6.6-.7,105.36,105.93.7,6.72,0,4.69,4.73,74.4,74.92,75.44-74,4.7-4.62,6.64.05,106,.69.71-105.26,0-6.69,4.75-4.65,75.4-73.93-74.44-75-4.64-4.68,0-6.6.71-105.35-105.94-.7-6.72,0-4.68-4.71-74.4-74.93-75.44,74-4.71,4.61-6.63,0-106-.7L892,1607.7l0,6.68Zm-109.44,62.39,82.13-80.53.77-114.6.1-16,16,.11,115.41.76,82.16-80.55,11.43-11.22,11.32,11.4,81,81.61,115.32.77,16.11.1-.1,15.93-.77,114.69,81.07,81.64,11.28,11.36-11.47,11.25-82.12,80.53-.77,114.6-.11,16-16-.1-115.41-.77L1093,1999l-11.44,11.21-11.31-11.4-81-81.61-115.33-.76-16.11-.11.11-15.93.77-114.68L777.57,1704l-11.29-11.36Zm380.81,452.4-74.89-74.42-74.88,74.42-4.73,4.69H891.46V2250.4l-4.72,4.7-74.89,74.41,74.89,74.42,4.72,4.69v111.9h112.6l4.73,4.69,74.88,74.42,74.89-74.42,4.72-4.69h112.6v-111.9l4.73-4.69,74.88-74.42-74.88-74.41-4.73-4.7V2138.51h-112.6Zm-63.48-108.44,81.58,81.06h131.5v130.67l81.57,81.07,11.41,11.33-11.41,11.34-81.57,81.06v130.67h-131.5l-81.58,81.07L1083.67,2645l-11.41-11.33-81.57-81.07H859.19V2421.91l-81.57-81.06-11.42-11.34,11.42-11.33,81.57-81.07V2106.44h131.5l81.57-81.06,11.41-11.34ZM887.19,2908.84l-75.4,73.93,74.43,75,4.64,4.68,0,6.6-.7,105.35,105.93.7,6.72,0,4.69,4.72,74.4,74.93,75.44-74,4.7-4.62,6.64.05,106,.7.71-105.27,0-6.68,4.75-4.65,75.4-73.93-74.44-75-4.64-4.69,0-6.59.71-105.36-105.94-.69-6.72-.05-4.68-4.71-74.4-74.93-75.44,74-4.71,4.61-6.63,0-106-.7L892,2897.5l0,6.68Zm-109.44,62.38,82.13-80.53.77-114.6.1-16,16,.11,115.41.76,82.16-80.56,11.43-11.22,11.32,11.41,81,81.61,115.32.76,16.11.11-.1,15.93-.77,114.68,81.07,81.65,11.28,11.36-11.47,11.25-82.12,80.52-.77,114.6-.11,16-16-.1-115.41-.76L1093,3288.76,1081.55,3300l-11.31-11.4-81-81.61-115.33-.77-16.11-.1.11-15.93.77-114.69-81.07-81.64-11.29-11.37Zm380.81,452.4-74.89-74.41-74.88,74.41-4.73,4.7H891.46v111.89l-4.72,4.69-74.89,74.42,74.89,74.41,4.72,4.7v111.89h112.6l4.73,4.7,74.88,74.41,74.89-74.41,4.72-4.7h112.6V3698.43l4.73-4.7,74.88-74.41-74.88-74.42-4.73-4.69V3428.32h-112.6Zm-63.48-108.43,81.58,81.06h131.5v130.67l81.57,81.06,11.41,11.34-11.41,11.34-81.57,81.06v130.67h-131.5l-81.58,81.06-11.41,11.34-11.41-11.34-81.57-81.06H859.19V3711.72l-81.57-81.06-11.42-11.34L777.62,3608l81.57-81.06V3396.25h131.5l81.57-81.06,11.41-11.34Zm563.84-2791L1584,449.74l-74.89,74.42-4.72,4.7h-112.6V640.75l-4.73,4.69-74.88,74.42,74.88,74.41,4.73,4.7V910.86h112.6l4.72,4.69L1584,990l74.88-74.42,4.73-4.69h112.6V799l4.72-4.7,74.89-74.41L1781,645.44l-4.72-4.69V528.86h-112.6Zm-63.47-108.43L1677,496.79h131.5V627.46l81.57,81.06,11.41,11.34-11.41,11.34-81.57,81.06V942.93H1677L1595.45,1024,1584,1035.33,1572.62,1024l-81.57-81.06h-131.5V812.26L1278,731.2l-11.41-11.34L1278,708.52l81.57-81.06V496.79h131.5l81.57-81.06L1584,404.39Zm-207.9,883.45-75.4,73.93,74.43,75,4.65,4.68,0,6.6-.7,105.35,105.93.7,6.72,0,4.68,4.72,74.4,74.93,75.44-74,4.7-4.62,6.64,0,106,.7.7-105.26,0-6.69,4.75-4.65,75.4-73.93-74.43-75-4.65-4.68.05-6.6.7-105.35-105.93-.7-6.73,0-4.68-4.71-74.4-74.93-75.43,74-4.71,4.61-6.64,0-106-.7-.71,105.27,0,6.67Zm-109.43,62.38,82.12-80.53.77-114.59.11-16,16,.11,115.41.76,82.16-80.56,11.43-11.22,11.33,11.41,81,81.61,115.33.77,16.11.1-.11,15.93-.76,114.69,81.06,81.64,11.29,11.36L1890,1388.27l-82.13,80.53-.77,114.6-.11,16-16-.11-115.42-.76-82.16,80.56-11.44,11.21-11.31-11.4-81-81.61-115.32-.76-16.12-.11.11-15.93.77-114.68-81.07-81.65-11.29-11.36Zm380.8,452.4L1584,1739.55,1509.15,1814l-4.72,4.7h-112.6v111.89l-4.73,4.7-74.88,74.41,74.88,74.42,4.73,4.69v111.89h112.6l4.72,4.7,74.89,74.41,74.88-74.41,4.73-4.7h112.6V2088.77l4.72-4.69,74.89-74.42L1781,1935.25l-4.72-4.7V1818.66h-112.6Zm-63.47-108.43,81.57,81.06h131.5v130.67l81.57,81.06,11.41,11.34L1890.09,2021l-81.57,81.06v130.67H1677l-81.57,81.06L1584,2325.13l-11.42-11.34-81.57-81.06h-131.5V2102.06L1278,2021l-11.41-11.34,11.41-11.34,81.57-81.06V1786.59h131.5l81.57-81.06,11.42-11.34ZM1387.55,2589l-75.4,73.94,74.43,75,4.65,4.67,0,6.61-.7,105.35,105.93.7,6.72,0,4.68,4.72,74.4,74.93,75.44-74,4.7-4.62,6.64.05,106,.7.7-105.27,0-6.68,4.75-4.65,75.4-73.94-74.43-75-4.65-4.68.05-6.59.7-105.36-105.93-.7-6.73,0-4.68-4.72-74.4-74.92-75.43,74-4.71,4.61-6.64,0-106-.69-.71,105.26,0,6.68Zm-109.43,62.39,82.12-80.53.77-114.6.11-16,16,.1,115.41.77,82.16-80.56,11.43-11.22,11.33,11.41,81,81.61,115.33.76,16.11.1-.11,15.94-.76,114.68,81.06,81.65,11.29,11.35L1890,2678.07l-82.13,80.53-.77,114.6-.11,16-16-.1-115.42-.76-82.16,80.55-11.44,11.22-11.31-11.4-81-81.61-115.32-.77-16.12-.11.11-15.92.77-114.69L1277.93,2674l-11.29-11.37Zm380.8,452.4L1584,3029.36l-74.89,74.41-4.72,4.7h-112.6v111.89l-4.73,4.69-74.88,74.42,74.88,74.41,4.73,4.7v111.89h112.6l4.72,4.7,74.89,74.41,74.88-74.41,4.73-4.7h112.6V3378.58l4.72-4.7,74.89-74.41L1781,3225.05l-4.72-4.69V3108.47h-112.6Zm-63.47-108.43,81.57,81h131.5v130.68l81.57,81.06,11.41,11.34-11.41,11.34-81.57,81.06v130.67H1677l-81.57,81.06L1584,3614.94l-11.42-11.34-81.57-81.06h-131.5V3391.87L1278,3310.81l-11.41-11.34,11.41-11.34,81.57-81.06V3076.39h131.5l81.57-81L1584,2984ZM1882.13,329.23l-75.4,73.93,74.44,75,4.64,4.68,0,6.6-.71,105.35,105.94.7,6.72,0,4.68,4.72,74.4,74.93,75.44-74,4.7-4.61,6.65,0,106,.7.7-105.27,0-6.67,4.75-4.66,75.4-73.94-74.43-74.95-4.65-4.68,0-6.6.7-105.36-105.93-.69-6.73,0-4.68-4.73-74.4-74.92-75.43,74-4.71,4.62-6.64,0-106-.7-.71,105.26,0,6.69ZM1772.7,391.61l82.13-80.53.76-114.6.11-16,16,.11,115.41.76,82.16-80.56,11.44-11.21,11.32,11.4,81,81.61,115.33.76,16.11.11-.11,15.93-.76,114.68,81.07,81.65L2396,407.07l-11.47,11.25-82.13,80.53-.77,114.59-.11,16-16-.1-115.42-.76-82.16,80.56-11.44,11.21L2065.18,709l-81-81.61-115.32-.77-16.12-.1.11-15.93.77-114.69-81.07-81.64-11.29-11.36ZM2153.5,844l-74.88-74.41L2003.73,844l-4.72,4.7h-112.6V960.6l-4.73,4.69-74.88,74.42,74.88,74.41,4.73,4.7v111.89H1999l4.72,4.7,74.89,74.41,74.88-74.41,4.73-4.7h112.6V1118.82l4.72-4.7,74.89-74.41-74.89-74.42-4.72-4.69V848.71h-112.6ZM2090,735.58l81.57,81.06h131.5V947.31l81.57,81.06,11.42,11.34-11.42,11.34-81.57,81.06v130.67H2171.6L2090,1343.84l-11.41,11.34-11.41-11.34-81.58-81.06H1854.14V1132.11l-81.58-81.06-11.41-11.34,11.41-11.34,81.58-81.06V816.64h131.49l81.58-81.06,11.41-11.34ZM1882.13,1619l-75.4,73.94,74.44,75,4.64,4.67,0,6.6-.71,105.36,105.94.7,6.72,0,4.68,4.73,74.4,74.92,75.44-74,4.7-4.62,6.65.05,106,.69.7-105.26,0-6.69,4.75-4.65,75.4-73.93-74.43-75-4.65-4.68,0-6.6.7-105.35-105.93-.7-6.73,0-4.68-4.71-74.4-74.93-75.43,74-4.71,4.61-6.64,0-106-.7-.71,105.27,0,6.68Zm-109.43,62.39,82.13-80.53.76-114.6.11-16,16,.11,115.41.76,82.16-80.55,11.44-11.22,11.32,11.4,81,81.61,115.33.77,16.11.1-.11,15.93-.76,114.69,81.07,81.64,11.28,11.36-11.47,11.25-82.13,80.53-.77,114.6-.11,16-16-.1-115.42-.77L2087.93,1999l-11.44,11.21-11.31-11.4-81-81.61-115.32-.76-16.12-.11.11-15.93.77-114.68L1772.51,1704l-11.29-11.36Zm380.8,452.4-74.88-74.42-74.89,74.42-4.72,4.69h-112.6V2250.4l-4.73,4.7-74.88,74.41,74.88,74.42,4.73,4.69v111.9H1999l4.72,4.69,74.89,74.42,74.88-74.42,4.73-4.69h112.6v-111.9l4.72-4.69,74.89-74.42-74.89-74.41-4.72-4.7V2138.51h-112.6ZM2090,2025.38l81.57,81.06h131.5v130.67l81.57,81.07,11.42,11.33-11.42,11.34-81.57,81.06v130.67H2171.6L2090,2633.65,2078.62,2645l-11.41-11.33-81.58-81.07H1854.14V2421.91l-81.58-81.06-11.41-11.34,11.41-11.33,81.58-81.07V2106.44h131.49l81.58-81.06,11.41-11.34Zm-207.9,883.46-75.4,73.93,74.44,75,4.64,4.68,0,6.6-.71,105.35,105.94.7,6.72,0,4.68,4.72,74.4,74.93,75.44-74,4.7-4.62,6.65.05,106,.7.7-105.27,0-6.68,4.75-4.65,75.4-73.93-74.43-75-4.65-4.69,0-6.59.7-105.36-105.93-.69-6.73-.05-4.68-4.71-74.4-74.93-75.43,74-4.71,4.61-6.64,0-106-.7-.71,105.26,0,6.68Zm-109.43,62.38,82.13-80.53.76-114.6.11-16,16,.11,115.41.76,82.16-80.56,11.44-11.22,11.32,11.41,81,81.61,115.33.76,16.11.11-.11,15.93-.76,114.68,81.07,81.65,11.28,11.36-11.47,11.25-82.13,80.52-.77,114.6-.11,16-16-.1-115.42-.76-82.16,80.56L2076.49,3300l-11.31-11.4-81-81.61-115.32-.77-16.12-.1.11-15.93.77-114.69-81.07-81.64-11.29-11.37Zm380.8,452.4-74.88-74.41-74.89,74.41-4.72,4.7h-112.6v111.89l-4.73,4.69-74.88,74.42,74.88,74.41,4.73,4.7v111.89H1999l4.72,4.7,74.89,74.41L2153.5,3815l4.73-4.7h112.6V3698.43l4.72-4.7,74.89-74.41-74.89-74.42-4.72-4.69V3428.32h-112.6ZM2090,3315.19l81.57,81.06h131.5v130.67l81.57,81.06,11.42,11.34-11.42,11.34-81.57,81.06v130.67H2171.6L2090,3923.45l-11.41,11.34-11.41-11.34-81.58-81.06H1854.14V3711.72l-81.58-81.06-11.41-11.34,11.41-11.34,81.58-81.06V3396.25h131.49l81.58-81.06,11.41-11.34Zm563.84-2791L2579,449.74l-74.88,74.42-4.73,4.7h-112.6V640.75l-4.72,4.69-74.89,74.42,74.89,74.41,4.72,4.7V910.86h112.6l4.73,4.69L2579,990l74.89-74.42,4.72-4.69h112.6V799l4.73-4.7,74.88-74.41-74.88-74.42-4.73-4.69V528.86h-112.6Zm-63.48-108.43L2672,496.79h131.5V627.46L2885,708.52l11.41,11.34L2885,731.2l-81.57,81.06V942.93H2672L2590.39,1024,2579,1035.33,2567.57,1024,2486,942.93H2354.5V812.26l-81.57-81.06-11.42-11.34,11.42-11.34,81.57-81.06V496.79H2486l81.57-81.06L2579,404.39ZM2382.5,1299.18l-75.4,73.93,74.43,75,4.64,4.68,0,6.6-.7,105.35,105.93.7,6.72,0,4.69,4.72,74.4,74.93,75.43-74,4.71-4.62,6.64,0,106,.7.71-105.26,0-6.69,4.75-4.65,75.4-73.93-74.44-75-4.64-4.68,0-6.6.7-105.35-105.93-.7-6.72,0-4.68-4.71-74.4-74.93-75.44,74-4.71,4.61-6.64,0-106-.7-.7,105.27-.05,6.67Zm-109.44,62.38,82.13-80.53.77-114.59.1-16,16,.11,115.42.76,82.16-80.56,11.43-11.22,11.32,11.41,81,81.61,115.32.77,16.11.1-.1,15.93L2804,1284l81.07,81.64,11.28,11.36-11.47,11.25-82.13,80.53-.76,114.6-.11,16-16-.11-115.41-.76-82.16,80.56-11.44,11.21-11.32-11.4-81-81.61-115.33-.76-16.11-.11.1-15.93.77-114.68-81.07-81.65-11.28-11.36ZM2653.87,1814,2579,1739.55,2504.1,1814l-4.73,4.7h-112.6v111.89l-4.72,4.7-74.89,74.41,74.89,74.42,4.72,4.69v111.89h112.6l4.73,4.7,74.88,74.41,74.89-74.41,4.72-4.7h112.6V2088.77l4.73-4.69,74.88-74.42-74.88-74.41-4.73-4.7V1818.66h-112.6Zm-63.48-108.43,81.58,81.06h131.5v130.67l81.57,81.06,11.41,11.34L2885,2021l-81.57,81.06v130.67H2672l-81.58,81.06L2579,2325.13l-11.41-11.34L2486,2232.73H2354.5V2102.06L2272.93,2021l-11.42-11.34,11.42-11.34,81.57-81.06V1786.59H2486l81.57-81.06,11.41-11.34ZM2382.5,2589l-75.4,73.94,74.43,75,4.64,4.67,0,6.61-.7,105.35,105.93.7,6.72,0,4.69,4.72,74.4,74.93,75.43-74,4.71-4.62,6.64.05,106,.7.71-105.27,0-6.68,4.75-4.65,75.4-73.94-74.44-75-4.64-4.68,0-6.59.7-105.36-105.93-.7-6.72,0-4.68-4.72-74.4-74.92-75.44,74-4.71,4.61-6.64,0-106-.69-.7,105.26-.05,6.68Zm-109.44,62.39,82.13-80.53.77-114.6.1-16,16,.1,115.42.77,82.16-80.56,11.43-11.22,11.32,11.41,81,81.61,115.32.76,16.11.1-.1,15.94-.77,114.68,81.07,81.65,11.28,11.35-11.47,11.25-82.13,80.53-.76,114.6-.11,16-16-.1-115.41-.76-82.16,80.55-11.44,11.22-11.32-11.4-81-81.61-115.33-.77-16.11-.11.1-15.92.77-114.69L2272.87,2674l-11.28-11.37Zm380.81,452.4L2579,3029.36l-74.88,74.41-4.73,4.7h-112.6v111.89l-4.72,4.69-74.89,74.42,74.89,74.41,4.72,4.7v111.89h112.6l4.73,4.7,74.88,74.41,74.89-74.41,4.72-4.7h112.6V3378.58l4.73-4.7,74.88-74.41-74.88-74.42-4.73-4.69V3108.47h-112.6Zm-63.48-108.43,81.58,81h131.5v130.68l81.57,81.06,11.41,11.34L2885,3310.81l-81.57,81.06v130.67H2672l-81.58,81.06L2579,3614.94l-11.41-11.34L2486,3522.54H2354.5V3391.87l-81.57-81.06-11.42-11.34,11.42-11.34,81.57-81.06V3076.39H2486l81.57-81L2579,2984ZM2877.08,329.23l-75.4,73.93,74.43,75,4.64,4.68,0,6.6-.7,105.35,105.93.7,6.72,0,4.69,4.72,74.4,74.93,75.43-74,4.71-4.61,6.64,0,106,.7.71-105.27,0-6.67,4.76-4.66,75.4-73.94L3271,331.81l-4.64-4.68,0-6.6.71-105.36-105.94-.69-6.72,0-4.68-4.73-74.4-74.92-75.44,74-4.71,4.62-6.64,0-106-.7-.7,105.26,0,6.69Zm-109.44,62.38,82.13-80.53.77-114.6.1-16,16,.11,115.42.76,82.16-80.56,11.43-11.21L3087,101l81,81.61,115.32.76,16.11.11-.1,15.93-.77,114.68,81.07,81.65L3391,407.07l-11.47,11.25-82.13,80.53-.76,114.59-.11,16-16-.1L3165,628.59l-82.16,80.56-11.44,11.21L3060.12,709l-81-81.61-115.33-.77-16.11-.1.11-15.93.76-114.69-81.07-81.64-11.29-11.36ZM3148.45,844l-74.89-74.41L2998.68,844l-4.73,4.7h-112.6V960.6l-4.72,4.69-74.89,74.42,74.89,74.41,4.72,4.7v111.89H2994l4.73,4.7,74.88,74.41,74.89-74.41,4.72-4.7h112.6V1118.82l4.73-4.7,74.88-74.41-74.88-74.42-4.73-4.69V848.71h-112.6ZM3085,735.58l81.58,81.06H3298V947.31l81.58,81.06,11.41,11.34-11.41,11.34L3298,1132.11v130.67H3166.55L3085,1343.84l-11.41,11.34-11.41-11.34-81.57-81.06h-131.5V1132.11l-81.57-81.06-11.42-11.34,11.42-11.34,81.57-81.06V816.64h131.5l81.57-81.06,11.41-11.34ZM2877.08,1619l-75.4,73.94,74.43,75,4.64,4.67,0,6.6-.7,105.36,105.93.7,6.72,0,4.69,4.73,74.4,74.92,75.43-74,4.71-4.62,6.64.05,106,.69.71-105.26,0-6.69,4.76-4.65,75.4-73.93-74.44-75-4.64-4.68,0-6.6.71-105.35-105.94-.7-6.72,0-4.68-4.71-74.4-74.93-75.44,74-4.71,4.61-6.64,0-106-.7-.7,105.27,0,6.68Zm-109.44,62.39,82.13-80.53.77-114.6.1-16,16,.11,115.42.76,82.16-80.55,11.43-11.22,11.32,11.4,81,81.61,115.32.77,16.11.1-.1,15.93-.77,114.69,81.07,81.64,11.28,11.36-11.47,11.25-82.13,80.53-.76,114.6-.11,16-16-.1-115.41-.77L3082.88,1999l-11.44,11.21-11.32-11.4-81-81.61-115.33-.76-16.11-.11.11-15.93.76-114.68L2767.45,1704l-11.29-11.36Zm380.81,452.4-74.89-74.42-74.88,74.42-4.73,4.69h-112.6V2250.4l-4.72,4.7-74.89,74.41,74.89,74.42,4.72,4.69v111.9H2994l4.73,4.69,74.88,74.42,74.89-74.42,4.72-4.69h112.6v-111.9l4.73-4.69,74.88-74.42-74.88-74.41-4.73-4.7V2138.51h-112.6ZM3085,2025.38l81.58,81.06H3298v130.67l81.58,81.07,11.41,11.33-11.41,11.34L3298,2421.91v130.67H3166.55L3085,2633.65,3073.56,2645l-11.41-11.33-81.57-81.07h-131.5V2421.91l-81.57-81.06-11.42-11.34,11.42-11.33,81.57-81.07V2106.44h131.5l81.57-81.06,11.41-11.34Zm-207.89,883.46-75.4,73.93,74.43,75,4.64,4.68,0,6.6-.7,105.35,105.93.7,6.72,0,4.69,4.72,74.4,74.93,75.43-74,4.71-4.62,6.64.05,106,.7.71-105.27,0-6.68,4.76-4.65,75.4-73.93-74.44-75-4.64-4.69,0-6.59.71-105.36-105.94-.69-6.72-.05-4.68-4.71-74.4-74.93-75.44,74-4.71,4.61-6.64,0-106-.7-.7,105.26,0,6.68Zm-109.44,62.38,82.13-80.53.77-114.6.1-16,16,.11,115.42.76,82.16-80.56,11.43-11.22,11.32,11.41,81,81.61,115.32.76,16.11.11-.1,15.93-.77,114.68,81.07,81.65,11.28,11.36-11.47,11.25-82.13,80.52-.76,114.6-.11,16-16-.1L3165,3208.2l-82.16,80.56L3071.44,3300l-11.32-11.4-81-81.61-115.33-.77-16.11-.1.11-15.93.76-114.69-81.07-81.64-11.29-11.37Zm380.81,452.4-74.89-74.41-74.88,74.41-4.73,4.7h-112.6v111.89l-4.72,4.69-74.89,74.42,74.89,74.41,4.72,4.7v111.89H2994l4.73,4.7,74.88,74.41,74.89-74.41,4.72-4.7h112.6V3698.43l4.73-4.7,74.88-74.41-74.88-74.42-4.73-4.69V3428.32h-112.6ZM3085,3315.19l81.58,81.06H3298v130.67l81.58,81.06,11.41,11.34-11.41,11.34L3298,3711.72v130.67H3166.55L3085,3923.45l-11.41,11.34-11.41-11.34-81.57-81.06h-131.5V3711.72l-81.57-81.06-11.42-11.34,11.42-11.34,81.57-81.06V3396.25h131.5l81.57-81.06,11.41-11.34Zm563.84-2791-74.88-74.42L3499,524.16l-4.73,4.7H3381.72V640.75l-4.73,4.69-74.89,74.42L3377,794.27l4.73,4.7V910.86h112.59l4.73,4.69L3573.93,990l74.88-74.42,4.73-4.69h112.6V799l4.72-4.7,74.89-74.41-74.89-74.42-4.72-4.69V528.86h-112.6Zm-63.47-108.43,81.57,81.06h131.5V627.46L3880,708.52l11.41,11.34L3880,731.2l-81.57,81.06V942.93h-131.5L3585.34,1024l-11.41,11.34L3562.51,1024l-81.57-81.06h-131.5V812.26l-81.57-81.06-11.41-11.34,11.41-11.34,81.57-81.06V496.79h131.5l81.57-81.06,11.42-11.34Zm-207.9,883.45-75.4,73.93,74.43,75,4.64,4.68,0,6.6-.71,105.35,105.93.7,6.72,0,4.69,4.72,74.4,74.93,75.44-74,4.7-4.62,6.64,0,106,.7.7-105.26,0-6.69,4.75-4.65,75.4-73.93-74.43-75-4.65-4.68,0-6.6.71-105.35-105.93-.7-6.73,0-4.68-4.71-74.4-74.93-75.43,74-4.72,4.61-6.63,0-106-.7-.71,105.27,0,6.67ZM3268,1361.56l82.12-80.53.77-114.59.11-16,16,.11,115.41.76,82.16-80.56,11.43-11.22,11.32,11.41,81,81.61,115.32.77,16.11.1-.1,15.93L3799,1284l81.07,81.64,11.29,11.36-11.47,11.25-82.13,80.53-.77,114.6-.11,16-16-.11-115.41-.76-82.16,80.56-11.44,11.21-11.31-11.4-81-81.61-115.32-.76-16.12-.11.11-15.93.77-114.68-81.07-81.65-11.29-11.36Zm380.8,452.4-74.88-74.41L3499,1814l-4.73,4.7H3381.72v111.89l-4.73,4.7-74.89,74.41,74.89,74.42,4.73,4.69v111.89h112.59l4.73,4.7,74.89,74.41,74.88-74.41,4.73-4.7h112.6V2088.77l4.72-4.69,74.89-74.42-74.89-74.41-4.72-4.7V1818.66h-112.6Zm-63.47-108.43,81.57,81.06h131.5v130.67l81.57,81.06,11.41,11.34L3880,2021l-81.57,81.06v130.67h-131.5l-81.57,81.06-11.41,11.34-11.42-11.34-81.57-81.06h-131.5V2102.06L3267.87,2021l-11.41-11.34,11.41-11.34,81.57-81.06V1786.59h131.5l81.57-81.06,11.42-11.34ZM3377.44,2589l-75.4,73.94,74.43,75,4.64,4.67,0,6.61-.71,105.35,105.93.7,6.72,0,4.69,4.72,74.4,74.93,75.44-74,4.7-4.62,6.64.05,106,.7.7-105.27,0-6.68,4.75-4.65,75.4-73.94-74.43-75-4.65-4.68,0-6.59.71-105.36-105.93-.7-6.73,0-4.68-4.72-74.4-74.92-75.43,74-4.72,4.61-6.63,0-106-.69-.71,105.26,0,6.68ZM3268,2651.37l82.12-80.53.77-114.6.11-16,16,.1,115.41.77,82.16-80.56,11.43-11.22,11.32,11.41,81,81.61,115.32.76,16.11.1-.1,15.94-.77,114.68,81.07,81.65,11.29,11.35-11.47,11.25-82.13,80.53-.77,114.6-.11,16-16-.1-115.41-.76-82.16,80.55-11.44,11.22-11.31-11.4-81-81.61-115.32-.77-16.12-.11.11-15.92.77-114.69L3267.82,2674l-11.29-11.37Zm380.8,452.4-74.88-74.41L3499,3103.77l-4.73,4.7H3381.72v111.89l-4.73,4.69-74.89,74.42,74.89,74.41,4.73,4.7v111.89h112.59l4.73,4.7,74.89,74.41,74.88-74.41,4.73-4.7h112.6V3378.58l4.72-4.7,74.89-74.41-74.89-74.42-4.72-4.69V3108.47h-112.6Zm-63.47-108.43,81.57,81h131.5v130.68l81.57,81.06,11.41,11.34L3880,3310.81l-81.57,81.06v130.67h-131.5l-81.57,81.06-11.41,11.34-11.42-11.34-81.57-81.06h-131.5V3391.87l-81.57-81.06-11.41-11.34,11.41-11.34,81.57-81.06V3076.39h131.5l81.57-81,11.42-11.34ZM3872,329.23l-75.4,73.93,74.44,75,4.64,4.68,0,6.6L3875,594.75l105.94.7,6.71,0,4.69,4.72,74.4,74.93,75.44-74,4.7-4.61,6.64,0,106,.7.7-105.27,0-6.67,4.75-4.66,75.4-73.94L4266,331.81l-4.65-4.68,0-6.6.7-105.36-105.93-.69-6.73,0-4.68-4.73-74.4-74.92-75.44,74-4.71,4.62-6.63,0-106-.7-.71,105.26,0,6.69Zm-109.43,62.38,82.12-80.53.77-114.6.1-16,16,.11,115.41.76,82.16-80.56,11.43-11.21,11.32,11.4,81,81.61,115.33.76,16.11.11-.11,15.93-.77,114.68,81.07,81.65,11.29,11.36-11.47,11.25-82.13,80.53-.77,114.59-.11,16-16-.1L4160,628.59l-82.16,80.56-11.44,11.21L4055.07,709l-81-81.61-115.32-.77-16.12-.1.11-15.93.77-114.69-81.07-81.64-11.29-11.36ZM4143.39,844l-74.88-74.41L3993.62,844l-4.72,4.7H3876.29V960.6l-4.72,4.69-74.88,74.42,74.88,74.41,4.72,4.7v111.89H3988.9l4.72,4.7,74.89,74.41,74.88-74.41,4.73-4.7h112.6V1118.82l4.72-4.7,74.89-74.41-74.89-74.42-4.72-4.69V848.71h-112.6Zm-63.47-108.43,81.57,81.06H4293V947.31l81.57,81.06,11.41,11.34-11.41,11.34L4293,1132.11v130.67h-131.5l-81.57,81.06-11.41,11.34-11.42-11.34-81.57-81.06H3844V1132.11l-81.57-81.06L3751,1039.71l11.41-11.34L3844,947.31V816.64h131.5l81.57-81.06,11.42-11.34ZM3872,1619l-75.4,73.94,74.44,75,4.64,4.67,0,6.6-.71,105.36,105.94.7,6.71,0,4.69,4.73,74.4,74.92,75.44-74,4.7-4.62,6.64.05,106,.69.7-105.26,0-6.69,4.75-4.65,75.4-73.93-74.43-75-4.65-4.68,0-6.6.7-105.35-105.93-.7-6.73,0-4.68-4.71-74.4-74.93-75.44,74-4.71,4.61-6.63,0-106-.7-.71,105.27,0,6.68Zm-109.43,62.39,82.12-80.53.77-114.6.1-16,16,.11,115.41.76,82.16-80.55,11.43-11.22,11.32,11.4,81,81.61,115.33.77,16.11.1-.11,15.93-.77,114.69,81.07,81.64,11.29,11.36-11.47,11.25-82.13,80.53-.77,114.6-.11,16-16-.1-115.41-.77L4077.82,1999l-11.44,11.21-11.31-11.4-81-81.61-115.32-.76-16.12-.11.11-15.93.77-114.68L3762.4,1704l-11.29-11.36Zm380.8,452.4-74.88-74.42-74.89,74.42-4.72,4.69H3876.29V2250.4l-4.72,4.7-74.88,74.41,74.88,74.42,4.72,4.69v111.9H3988.9l4.72,4.69,74.89,74.42,74.88-74.42,4.73-4.69h112.6v-111.9l4.72-4.69,74.89-74.42-74.89-74.41-4.72-4.7V2138.51h-112.6Zm-63.47-108.44,81.57,81.06H4293v130.67l81.57,81.07,11.41,11.33-11.41,11.34L4293,2421.91v130.67h-131.5l-81.57,81.07L4068.51,2645l-11.42-11.33-81.57-81.07H3844V2421.91l-81.57-81.06L3751,2329.51l11.41-11.33,81.57-81.07V2106.44h131.5l81.57-81.06,11.42-11.34ZM3872,2908.84l-75.4,73.93,74.44,75,4.64,4.68,0,6.6-.71,105.35,105.94.7,6.71,0,4.69,4.72,74.4,74.93,75.44-74,4.7-4.62,6.64.05,106,.7.7-105.27,0-6.68,4.75-4.65,75.4-73.93-74.43-75-4.65-4.69,0-6.59.7-105.36-105.93-.69-6.73-.05-4.68-4.71-74.4-74.93-75.44,74-4.71,4.61-6.63,0-106-.7-.71,105.26,0,6.68Zm-109.43,62.38,82.12-80.53.77-114.6.1-16,16,.11L3977,2761l82.16-80.56,11.43-11.22,11.32,11.41,81,81.61,115.33.76,16.11.11-.11,15.93-.77,114.68,81.07,81.65,11.29,11.36-11.47,11.25-82.13,80.52-.77,114.6-.11,16-16-.1L4160,3208.2l-82.16,80.56L4066.38,3300l-11.31-11.4L3974,3207l-115.32-.77-16.12-.1.11-15.93.77-114.69-81.07-81.64-11.29-11.37Zm380.8,452.4-74.88-74.41-74.89,74.41-4.72,4.7H3876.29v111.89l-4.72,4.69-74.88,74.42,74.88,74.41,4.72,4.7v111.89H3988.9l4.72,4.7,74.89,74.41,74.88-74.41,4.73-4.7h112.6V3698.43l4.72-4.7,74.89-74.41-74.89-74.42-4.72-4.69V3428.32h-112.6Zm-63.47-108.43,81.57,81.06H4293v130.67l81.57,81.06,11.41,11.34-11.41,11.34L4293,3711.72v130.67h-131.5l-81.57,81.06-11.41,11.34-11.42-11.34-81.57-81.06H3844V3711.72l-81.57-81.06L3751,3619.32l11.41-11.34,81.57-81.06V3396.25h131.5l81.57-81.06,11.42-11.34Zm563.84-2791-74.89-74.42L4494,524.16l-4.72,4.7h-112.6V640.75l-4.73,4.69-74.88,74.42,74.88,74.41,4.73,4.7V910.86h112.6l4.72,4.69L4568.87,990l74.89-74.42,4.72-4.69h112.6V799l4.73-4.7,74.88-74.41-74.88-74.42-4.73-4.69V528.86h-112.6Zm-63.48-108.43,81.57,81.06h131.5V627.46l81.57,81.06,11.42,11.34-11.42,11.34-81.57,81.06V942.93h-131.5L4580.28,1024l-11.41,11.34L4557.46,1024l-81.57-81.06h-131.5V812.26l-81.57-81.06-11.42-11.34,11.42-11.34,81.57-81.06V496.79h131.5l81.57-81.06,11.41-11.34Zm-207.89,883.45L4297,1373.11l74.44,75,4.64,4.68,0,6.6-.7,105.35,105.93.7,6.72,0,4.68,4.72,74.41,74.93,75.43-74,4.7-4.62,6.65,0,106,.7.7-105.26,0-6.69,4.75-4.65,75.41-73.93-74.44-75-4.65-4.68.05-6.6.7-105.35-105.93-.7-6.72,0-4.69-4.71-74.4-74.93-75.43,74-4.71,4.61-6.64,0-106-.7-.7,105.27-.05,6.67ZM4263,1361.56l82.13-80.53.76-114.59.11-16,16,.11,115.42.76,82.16-80.56,11.43-11.22,11.32,11.41,81,81.61,115.32.77,16.11.1-.1,15.93-.77,114.69,81.07,81.64,11.28,11.36-11.47,11.25-82.13,80.53-.77,114.6-.11,16-16-.11-115.42-.76-82.16,80.56-11.43,11.21-11.32-11.4-81-81.61-115.32-.76-16.12-.11.11-15.93.77-114.68-81.07-81.65-11.29-11.36ZM4643.76,1814l-74.89-74.41L4494,1814l-4.72,4.7h-112.6v111.89l-4.73,4.7-74.88,74.41,74.88,74.42,4.73,4.69v111.89h112.6l4.72,4.7,74.89,74.41,74.89-74.41,4.72-4.7h112.6V2088.77l4.73-4.69,74.88-74.42-74.88-74.41-4.73-4.7V1818.66h-112.6Zm-63.48-108.43,81.57,81.06h131.5v130.67l81.57,81.06,11.42,11.34L4874.92,2021l-81.57,81.06v130.67h-131.5l-81.57,81.06-11.41,11.34-11.41-11.34-81.57-81.06h-131.5V2102.06L4262.82,2021l-11.42-11.34,11.42-11.34,81.57-81.06V1786.59h131.5l81.57-81.06,11.41-11.34ZM4372.39,2589,4297,2662.92l74.44,75,4.64,4.67,0,6.61-.7,105.35,105.93.7,6.72,0,4.68,4.72,74.41,74.93,75.43-74,4.7-4.62,6.65.05,106,.7.7-105.27,0-6.68,4.75-4.65,75.41-73.94-74.44-75-4.65-4.68.05-6.59.7-105.36-105.93-.7-6.72,0-4.69-4.72-74.4-74.92-75.43,74-4.71,4.61-6.64,0-106-.69-.7,105.26-.05,6.68ZM4263,2651.37l82.13-80.53.76-114.6.11-16,16,.1,115.42.77,82.16-80.56,11.43-11.22,11.32,11.41,81,81.61,115.32.76,16.11.1-.1,15.94-.77,114.68,81.07,81.65,11.28,11.35-11.47,11.25-82.13,80.53-.77,114.6-.11,16-16-.1-115.42-.76-82.16,80.55-11.43,11.22-11.32-11.4-81-81.61-115.32-.77-16.12-.11.11-15.92.77-114.69L4262.76,2674l-11.29-11.37Zm380.81,452.4-74.89-74.41L4494,3103.77l-4.72,4.7h-112.6v111.89l-4.73,4.69-74.88,74.42,74.88,74.41,4.73,4.7v111.89h112.6l4.72,4.7,74.89,74.41,74.89-74.41,4.72-4.7h112.6V3378.58l4.73-4.7,74.88-74.41-74.88-74.42-4.73-4.69V3108.47h-112.6Zm-63.48-108.43,81.57,81h131.5v130.68l81.57,81.06,11.42,11.34-11.42,11.34-81.57,81.06v130.67h-131.5l-81.57,81.06-11.41,11.34-11.41-11.34-81.57-81.06h-131.5V3391.87l-81.57-81.06-11.42-11.34,11.42-11.34,81.57-81.06V3076.39h131.5l81.57-81,11.41-11.34ZM4867,329.23l-75.4,73.93,74.43,75,4.64,4.68,0,6.6-.7,105.35,105.93.7,6.72,0,4.68,4.72,74.41,74.93,75.43-74,4.71-4.61,6.64,0,106,.7.7-105.27,0-6.67,4.75-4.66,75.4-73.94-74.43-74.95-4.65-4.68.05-6.6.7-105.36-105.93-.69-6.73,0-4.67-4.73-74.41-74.92-75.43,74-4.71,4.62-6.64,0-106-.7-.7,105.26-.05,6.69Zm-109.44,62.38,82.13-80.53.77-114.6.1-16,16,.11,115.42.76,82.16-80.56,11.43-11.21,11.32,11.4,81,81.61,115.33.76,16.11.11-.1,15.93-.77,114.68,81.07,81.65,11.28,11.36-11.47,11.25-82.13,80.53-.77,114.59-.11,16-16-.1-115.42-.76-82.16,80.56-11.43,11.21L5050,709l-81-81.61-115.33-.77-16.12-.1.11-15.93.77-114.69-81.07-81.64-11.29-11.36ZM5138.34,844l-74.89-74.41L4988.56,844l-4.72,4.7h-112.6V960.6l-4.72,4.69-74.89,74.42,74.89,74.41,4.72,4.7v111.89h112.6l4.72,4.7,74.89,74.41,74.89-74.41,4.72-4.7h112.6V1118.82l4.73-4.7,74.88-74.41-74.88-74.42-4.73-4.69V848.71h-112.6Zm-63.48-108.43,81.58,81.06h131.49V947.31l81.58,81.06,11.41,11.34-11.41,11.34-81.58,81.06v130.67H5156.44l-81.58,81.06-11.41,11.34L5052,1343.84l-81.57-81.06H4839V1132.11l-81.58-81.06L4746,1039.71l11.41-11.34L4839,947.31V816.64h131.5L5052,735.58l11.41-11.34ZM4867,1619l-75.4,73.94,74.43,75,4.64,4.67,0,6.6-.7,105.36,105.93.7,6.72,0,4.68,4.73,74.41,74.92,75.43-74,4.71-4.62,6.64.05,106,.69.7-105.26,0-6.69,4.75-4.65,75.4-73.93-74.43-75-4.65-4.68.05-6.6L5257,1505l-105.93-.7-6.73,0-4.67-4.71-74.41-74.93-75.43,74-4.71,4.61-6.64,0-106-.7-.7,105.27-.05,6.68Zm-109.44,62.39,82.13-80.53.77-114.6.1-16,16,.11,115.42.76,82.16-80.55,11.43-11.22,11.32,11.4,81,81.61,115.33.77,16.11.1-.1,15.93-.77,114.69,81.07,81.64,11.28,11.36-11.47,11.25-82.13,80.53-.77,114.6-.11,16-16-.1-115.42-.77L5072.76,1999l-11.43,11.21-11.32-11.4-81-81.61-115.33-.76-16.12-.11.11-15.93.77-114.68L4757.34,1704l-11.29-11.36Zm380.81,452.4-74.89-74.42-74.89,74.42-4.72,4.69h-112.6V2250.4l-4.72,4.7-74.89,74.41,74.89,74.42,4.72,4.69v111.9h112.6l4.72,4.69,74.89,74.42,74.89-74.42,4.72-4.69h112.6v-111.9l4.73-4.69,74.88-74.42-74.88-74.41-4.73-4.7V2138.51h-112.6Zm-63.48-108.44,81.58,81.06h131.49v130.67l81.58,81.07,11.41,11.33-11.41,11.34-81.58,81.06v130.67H5156.44l-81.58,81.07L5063.45,2645,5052,2633.65l-81.57-81.07H4839V2421.91l-81.58-81.06L4746,2329.51l11.41-11.33,81.58-81.07V2106.44h131.5l81.57-81.06,11.41-11.34ZM4867,2908.84l-75.4,73.93,74.43,75,4.64,4.68,0,6.6-.7,105.35,105.93.7,6.72,0,4.68,4.72,74.41,74.93,75.43-74,4.71-4.62,6.64.05,106,.7.7-105.27,0-6.68,4.75-4.65,75.4-73.93-74.43-75-4.65-4.69.05-6.59.7-105.36-105.93-.69-6.73-.05-4.67-4.71-74.41-74.93-75.43,74-4.71,4.61-6.64,0-106-.7-.7,105.26-.05,6.68Zm-109.44,62.38,82.13-80.53.77-114.6.1-16,16,.11L4972,2761l82.16-80.56,11.43-11.22,11.32,11.41,81,81.61,115.33.76,16.11.11-.1,15.93-.77,114.68,81.07,81.65,11.28,11.36-11.47,11.25-82.13,80.52-.77,114.6-.11,16-16-.1-115.42-.76-82.16,80.56L5061.33,3300l-11.32-11.4L4969,3207l-115.33-.77-16.12-.1.11-15.93.77-114.69-81.07-81.64-11.29-11.37Zm380.81,452.4-74.89-74.41-74.89,74.41-4.72,4.7h-112.6v111.89l-4.72,4.69-74.89,74.42,74.89,74.41,4.72,4.7v111.89h112.6l4.72,4.7,74.89,74.41,74.89-74.41,4.72-4.7h112.6V3698.43l4.73-4.7,74.88-74.41-74.88-74.42-4.73-4.69V3428.32h-112.6Zm-63.48-108.43,81.58,81.06h131.49v130.67l81.58,81.06,11.41,11.34-11.41,11.34-81.58,81.06v130.67H5156.44l-81.58,81.06-11.41,11.34L5052,3923.45l-81.57-81.06H4839V3711.72l-81.58-81.06L4746,3619.32l11.41-11.34,81.58-81.06V3396.25h131.5l81.57-81.06,11.41-11.34Zm563.84-2791-74.89-74.42-74.88,74.42-4.73,4.7H5371.6V640.75l-4.72,4.69L5292,719.86l74.89,74.41,4.72,4.7V910.86h112.6l4.73,4.69L5563.81,990l74.89-74.42,4.73-4.69H5756V799l4.73-4.7,74.89-74.41-74.89-74.42-4.73-4.69V528.86H5643.43Zm-63.47-108.43,81.57,81.06h131.5V627.46l81.57,81.06,11.41,11.34-11.41,11.34-81.57,81.06V942.93H5656.8L5575.23,1024l-11.42,11.34L5552.4,1024l-81.57-81.06h-131.5V812.26l-81.57-81.06-11.41-11.34,11.41-11.34,81.57-81.06V496.79h131.5l81.57-81.06,11.41-11.34Zm-207.9,883.45-75.4,73.93,74.43,75,4.64,4.68,0,6.6-.71,105.35,105.93.7,6.72,0,4.69,4.72,74.4,74.93,75.43-74,4.71-4.62,6.64,0,106,.7.71-105.26,0-6.69,4.75-4.65,75.4-73.93-74.43-75-4.65-4.68,0-6.6.71-105.35-105.93-.7-6.73,0-4.68-4.71-74.4-74.93-75.44,74-4.71,4.61-6.63,0-106-.7-.7,105.27-.05,6.67Zm-109.44,62.38L5340,1281l.77-114.59.1-16,16,.11,115.41.76,82.16-80.56,11.43-11.22,11.32,11.41,81,81.61,115.32.77,16.11.1-.1,15.93-.77,114.69,81.07,81.64L5881.2,1377l-11.47,11.25-82.12,80.53-.77,114.6-.11,16-16-.11-115.41-.76-82.16,80.56-11.44,11.21-11.31-11.4-81-81.61-115.32-.76-16.12-.11.11-15.93.77-114.68-81.07-81.65-11.29-11.36ZM5638.7,1814l-74.89-74.41L5488.93,1814l-4.73,4.7H5371.6v111.89l-4.72,4.7L5292,2009.66l74.89,74.42,4.72,4.69v111.89h112.6l4.73,4.7,74.88,74.41,74.89-74.41,4.73-4.7H5756V2088.77l4.73-4.69,74.89-74.42-74.89-74.41-4.73-4.7V1818.66H5643.43Zm-63.47-108.43,81.57,81.06h131.5v130.67l81.57,81.06,11.41,11.34L5869.87,2021l-81.57,81.06v130.67H5656.8l-81.57,81.06-11.42,11.34-11.41-11.34-81.57-81.06h-131.5V2102.06L5257.76,2021l-11.41-11.34,11.41-11.34,81.57-81.06V1786.59h131.5l81.57-81.06,11.41-11.34ZM5367.33,2589l-75.4,73.94,74.43,75,4.64,4.67,0,6.61-.71,105.35,105.93.7,6.72,0,4.69,4.72,74.4,74.93,75.43-74,4.71-4.62,6.64.05,106,.7.71-105.27,0-6.68,4.75-4.65,75.4-73.94-74.43-75-4.65-4.68,0-6.59.71-105.36-105.93-.7-6.73,0-4.68-4.72-74.4-74.92-75.44,74-4.71,4.61-6.63,0-106-.69-.7,105.26-.05,6.68Zm-109.44,62.39,82.13-80.53.77-114.6.1-16,16,.1,115.41.77,82.16-80.56,11.43-11.22,11.32,11.41,81,81.61,115.32.76,16.11.1-.1,15.94-.77,114.68,81.07,81.65,11.28,11.35-11.47,11.25-82.12,80.53-.77,114.6-.11,16-16-.1-115.41-.76-82.16,80.55-11.44,11.22-11.31-11.4-81-81.61-115.32-.77-16.12-.11.11-15.92.77-114.69L5257.71,2674l-11.29-11.37Zm380.81,452.4-74.89-74.41-74.88,74.41-4.73,4.7H5371.6v111.89l-4.72,4.69L5292,3299.47l74.89,74.41,4.72,4.7v111.89h112.6l4.73,4.7,74.88,74.41,74.89-74.41,4.73-4.7H5756V3378.58l4.73-4.7,74.89-74.41-74.89-74.42-4.73-4.69V3108.47H5643.43Zm-63.47-108.43,81.57,81h131.5v130.68l81.57,81.06,11.41,11.34-11.41,11.34-81.57,81.06v130.67H5656.8l-81.57,81.06-11.42,11.34-11.41-11.34-81.57-81.06h-131.5V3391.87l-81.57-81.06-11.41-11.34,11.41-11.34,81.57-81.06V3076.39h131.5l81.57-81,11.41-11.34ZM5861.91,329.23l-75.4,73.93,74.43,75,4.64,4.68,0,6.6-.7,105.35,105.93.7,6.72,0,4.69,4.72,74.4,74.93,75.44-74,4.7-4.61,6.64,0,106,.7.71-105.27,0-6.67,4.75-4.66,75.4-73.94-74.43-74.95-4.65-4.68,0-6.6.71-105.36L6146,214.48l-6.72,0-4.68-4.73-74.4-74.92-75.44,74-4.71,4.62-6.63,0-106-.7-.7,105.26,0,6.69Zm-109.44,62.38,82.13-80.53.77-114.6.1-16,16,.11,115.41.76,82.16-80.56,11.43-11.21,11.32,11.4,81,81.61,115.32.76,16.12.11-.11,15.93-.77,114.68,81.07,81.65,11.28,11.36-11.46,11.25-82.13,80.53-.77,114.59-.11,16-16-.1-115.41-.76-82.16,80.56-11.44,11.21L6045,709l-81-81.61-115.32-.77-16.12-.1.11-15.93.77-114.69-81.07-81.64L5741,402.86ZM6133.28,844l-74.89-74.41L5983.51,844l-4.73,4.7h-112.6V960.6l-4.72,4.69-74.89,74.42,74.89,74.41,4.72,4.7v111.89h112.6l4.73,4.7,74.88,74.41,74.89-74.41,4.73-4.7H6250.6V1118.82l4.73-4.7,74.88-74.41-74.88-74.42-4.73-4.69V848.71H6138Zm-63.47-108.43,81.57,81.06h131.5V947.31l81.57,81.06,11.41,11.34-11.41,11.34-81.57,81.06v130.67h-131.5l-81.57,81.06-11.42,11.34L6047,1343.84l-81.57-81.06h-131.5V1132.11l-81.57-81.06-11.41-11.34,11.41-11.34,81.57-81.06V816.64h131.5L6047,735.58l11.41-11.34ZM5861.91,1619l-75.4,73.94,74.43,75,4.64,4.67,0,6.6-.7,105.36,105.93.7,6.72,0,4.69,4.73,74.4,74.92,75.44-74,4.7-4.62,6.64.05,106,.69.71-105.26,0-6.69,4.75-4.65,75.4-73.93-74.43-75-4.65-4.68,0-6.6L6252,1505l-105.94-.7-6.72,0-4.68-4.71-74.4-74.93-75.44,74-4.71,4.61-6.63,0-106-.7-.7,105.27,0,6.68Zm-109.44,62.39,82.13-80.53.77-114.6.1-16,16,.11,115.41.76,82.16-80.55,11.43-11.22,11.32,11.4,81,81.61,115.32.77,16.12.1-.11,15.93-.77,114.69,81.07,81.64,11.28,11.36-11.46,11.25-82.13,80.53-.77,114.6-.11,16-16-.1-115.41-.77L6067.71,1999l-11.44,11.21-11.31-11.4-81-81.61-115.32-.76-16.12-.11.11-15.93.77-114.68L5752.29,1704,5741,1692.66Zm380.81,452.4-74.89-74.42-74.88,74.42-4.73,4.69h-112.6V2250.4l-4.72,4.7-74.89,74.41,74.89,74.42,4.72,4.69v111.9h112.6l4.73,4.69,74.88,74.42,74.89-74.42,4.73-4.69H6250.6v-111.9l4.73-4.69,74.88-74.42-74.88-74.41-4.73-4.7V2138.51H6138Zm-63.47-108.44,81.57,81.06h131.5v130.67l81.57,81.07,11.41,11.33-11.41,11.34-81.57,81.06v130.67h-131.5l-81.57,81.07L6058.39,2645,6047,2633.65l-81.57-81.07h-131.5V2421.91l-81.57-81.06-11.41-11.34,11.41-11.33,81.57-81.07V2106.44h131.5l81.57-81.06,11.41-11.34Zm-207.9,883.46-75.4,73.93,74.43,75,4.64,4.68,0,6.6-.7,105.35,105.93.7,6.72,0,4.69,4.72,74.4,74.93,75.44-74,4.7-4.62,6.64.05,106,.7.71-105.27,0-6.68,4.75-4.65,75.4-73.93-74.43-75-4.65-4.69,0-6.59.71-105.36-105.94-.69-6.72-.05-4.68-4.71-74.4-74.93-75.44,74-4.71,4.61-6.63,0-106-.7-.7,105.26,0,6.68Zm-109.44,62.38,82.13-80.53.77-114.6.1-16,16,.11,115.41.76,82.16-80.56,11.43-11.22,11.32,11.41,81,81.61,115.32.76,16.12.11-.11,15.93-.77,114.68,81.07,81.65,11.28,11.36-11.46,11.25-82.13,80.52-.77,114.6-.11,16-16-.1-115.41-.76-82.16,80.56L6056.27,3300l-11.31-11.4-81-81.61-115.32-.77-16.12-.1.11-15.93.77-114.69-81.07-81.64L5741,2982.46Zm380.81,452.4-74.89-74.41-74.88,74.41-4.73,4.7h-112.6v111.89l-4.72,4.69-74.89,74.42,74.89,74.41,4.72,4.7v111.89h112.6l4.73,4.7,74.88,74.41,74.89-74.41,4.73-4.7H6250.6V3698.43l4.73-4.7,74.88-74.41-74.88-74.42-4.73-4.69V3428.32H6138Zm-63.47-108.43,81.57,81.06h131.5v130.67l81.57,81.06,11.41,11.34-11.41,11.34-81.57,81.06v130.67h-131.5l-81.57,81.06-11.42,11.34L6047,3923.45l-81.57-81.06h-131.5V3711.72l-81.57-81.06-11.41-11.34,11.41-11.34,81.57-81.06V3396.25h131.5l81.57-81.06,11.41-11.34Zm563.83-2791-74.88-74.42-74.89,74.42-4.72,4.7h-112.6V640.75l-4.73,4.69-74.88,74.42,74.88,74.41,4.73,4.7V910.86h112.6l4.72,4.69L6558.76,990l74.88-74.42,4.73-4.69H6751V799l4.72-4.7,74.89-74.41-74.89-74.42-4.72-4.69V528.86h-112.6Zm-63.47-108.43,81.57,81.06h131.5V627.46l81.57,81.06,11.42,11.34-11.42,11.34-81.57,81.06V942.93h-131.5L6570.17,1024l-11.41,11.34L6547.35,1024l-81.57-81.06H6334.27V812.26L6252.7,731.2l-11.41-11.34,11.41-11.34,81.57-81.06V496.79h131.51l81.57-81.06,11.41-11.34Zm-207.9,883.45-75.4,73.93,74.44,75,4.64,4.68,0,6.6-.7,105.35,105.93.7,6.72,0,4.68,4.72,74.4,74.93,75.44-74,4.7-4.62,6.65,0,106,.7.7-105.26,0-6.69,4.75-4.65,75.4-73.93-74.43-75-4.65-4.68,0-6.6.7-105.35-105.93-.7-6.73,0-4.68-4.71-74.4-74.93-75.43,74-4.72,4.61-6.63,0-106-.7-.71,105.27,0,6.67Zm-109.43,62.38L6335,1281l.76-114.59.11-16,16,.11,115.41.76,82.16-80.56,11.43-11.22,11.33,11.41,81,81.61,115.33.77,16.11.1-.11,15.93L6783.8,1284l81.07,81.64,11.28,11.36-11.47,11.25-82.13,80.53-.77,114.6-.11,16-16-.11-115.41-.76-82.16,80.56-11.43,11.21-11.32-11.4-81-81.61-115.32-.76-16.12-.11.11-15.93.77-114.68-81.07-81.65-11.29-11.36Zm380.8,452.4-74.88-74.41L6483.87,1814l-4.72,4.7h-112.6v111.89l-4.73,4.7-74.88,74.41,74.88,74.42,4.73,4.69v111.89h112.6l4.72,4.7,74.89,74.41,74.88-74.41,4.73-4.7H6751V2088.77l4.72-4.69,74.89-74.42-74.89-74.41-4.72-4.7V1818.66h-112.6Zm-63.47-108.43,81.57,81.06h131.5v130.67l81.57,81.06,11.42,11.34L6864.81,2021l-81.57,81.06v130.67h-131.5l-81.57,81.06-11.41,11.34-11.41-11.34-81.57-81.06H6334.27V2102.06L6252.7,2021l-11.41-11.34,11.41-11.34,81.57-81.06V1786.59h131.51l81.57-81.06,11.41-11.34ZM6362.27,2589l-75.4,73.94,74.44,75,4.64,4.67,0,6.61-.7,105.35,105.93.7,6.72,0,4.68,4.72,74.4,74.93,75.44-74,4.7-4.62,6.65.05,106,.7.7-105.27,0-6.68,4.75-4.65,75.4-73.94-74.43-75-4.65-4.68,0-6.59.7-105.36-105.93-.7-6.73,0-4.68-4.72-74.4-74.92-75.43,74-4.72,4.61-6.63,0-106-.69-.71,105.26,0,6.68Zm-109.43,62.39,82.13-80.53.76-114.6.11-16,16,.1,115.41.77,82.16-80.56,11.43-11.22,11.33,11.41,81,81.61,115.33.76,16.11.1-.11,15.94-.76,114.68,81.07,81.65,11.28,11.35-11.47,11.25-82.13,80.53-.77,114.6-.11,16-16-.1-115.41-.76-82.16,80.55-11.43,11.22-11.32-11.4-81-81.61-115.32-.77-16.12-.11.11-15.92.77-114.69L6252.65,2674l-11.29-11.37Zm380.8,452.4-74.88-74.41-74.89,74.41-4.72,4.7h-112.6v111.89l-4.73,4.69-74.88,74.42,74.88,74.41,4.73,4.7v111.89h112.6l4.72,4.7,74.89,74.41,74.88-74.41,4.73-4.7H6751V3378.58l4.72-4.7,74.89-74.41-74.89-74.42-4.72-4.69V3108.47h-112.6Zm-63.47-108.43,81.57,81h131.5v130.68l81.57,81.06,11.42,11.34-11.42,11.34-81.57,81.06v130.67h-131.5l-81.57,81.06-11.41,11.34-11.41-11.34-81.57-81.06H6334.27V3391.87l-81.57-81.06-11.41-11.34,11.41-11.34,81.57-81.06V3076.39h131.51l81.57-81,11.41-11.34ZM6856.86,329.23l-75.41,73.93,74.44,75,4.64,4.68,0,6.6-.7,105.35,105.93.7,6.72,0,4.68,4.72,74.41,74.93,75.43-74,4.71-4.61,6.64,0,106,.7L7245,492l0-6.67,4.75-4.66,75.4-73.94-74.43-74.95-4.65-4.68,0-6.6.7-105.36L7141,214.48l-6.73,0-4.68-4.73-74.4-74.92-75.43,74-4.71,4.62-6.64,0-106-.7-.71,105.26,0,6.69Zm-109.44,62.38,82.13-80.53.77-114.6.1-16,16,.11,115.42.76L7044,100.78l11.43-11.21,11.32,11.4,81,81.61,115.33.76,16.11.11-.1,15.93-.77,114.68,81.07,81.65,11.28,11.36-11.47,11.25-82.13,80.53-.77,114.59-.11,16-16-.1-115.42-.76-82.16,80.56-11.43,11.21L7039.9,709l-81-81.61-115.32-.77-16.12-.1.11-15.93.77-114.69-81.07-81.64-11.29-11.36ZM7128.22,844l-74.88-74.41L6978.45,844l-4.72,4.7h-112.6V960.6l-4.73,4.69-74.88,74.42,74.88,74.41,4.73,4.7v111.89h112.6l4.72,4.7,74.89,74.41,74.88-74.41,4.73-4.7h112.6V1118.82l4.72-4.7,74.89-74.41-74.89-74.42-4.72-4.69V848.71H7133Zm-63.47-108.43,81.57,81.06h131.5V947.31l81.58,81.06,11.41,11.34-11.41,11.34-81.58,81.06v130.67h-131.5l-81.57,81.06-11.41,11.34-11.41-11.34-81.58-81.06h-131.5V1132.11l-81.57-81.06-11.41-11.34,11.41-11.34,81.57-81.06V816.64h131.5l81.58-81.06,11.41-11.34ZM6856.86,1619,6781.45,1693l74.44,75,4.64,4.67,0,6.6-.7,105.36,105.93.7,6.72,0,4.68,4.73,74.41,74.92,75.43-74,4.71-4.62,6.64.05,106,.69.7-105.26,0-6.69,4.75-4.65,75.4-73.93-74.43-75-4.65-4.68,0-6.6.7-105.35-105.93-.7-6.73,0-4.68-4.71-74.4-74.93-75.43,74-4.71,4.61-6.64,0-106-.7-.71,105.27,0,6.68Zm-109.44,62.39,82.13-80.53.77-114.6.1-16,16,.11,115.42.76,82.16-80.55,11.43-11.22,11.32,11.4,81,81.61,115.33.77,16.11.1-.1,15.93-.77,114.69,81.07,81.64,11.28,11.36-11.47,11.25-82.13,80.53-.77,114.6-.11,16-16-.1-115.42-.77L7062.65,1999l-11.43,11.21-11.32-11.4-81-81.61-115.32-.76-16.12-.11.11-15.93.77-114.68L6747.23,1704l-11.29-11.36Zm380.8,452.4-74.88-74.42-74.89,74.42-4.72,4.69h-112.6V2250.4l-4.73,4.7-74.88,74.41,74.88,74.42,4.73,4.69v111.9h112.6l4.72,4.69,74.89,74.42,74.88-74.42,4.73-4.69h112.6v-111.9l4.72-4.69,74.89-74.42-74.89-74.41-4.72-4.7V2138.51H7133Zm-63.47-108.44,81.57,81.06h131.5v130.67l81.58,81.07,11.41,11.33-11.41,11.34-81.58,81.06v130.67h-131.5l-81.57,81.07L7053.34,2645l-11.41-11.33-81.58-81.07h-131.5V2421.91l-81.57-81.06-11.41-11.34,11.41-11.33,81.57-81.07V2106.44h131.5l81.58-81.06,11.41-11.34Zm-207.89,883.46-75.41,73.93,74.44,75,4.64,4.68,0,6.6-.7,105.35,105.93.7,6.72,0,4.68,4.72,74.41,74.93,75.43-74,4.71-4.62,6.64.05,106,.7.7-105.27,0-6.68,4.75-4.65,75.4-73.93-74.43-75-4.65-4.69,0-6.59.7-105.36-105.93-.69-6.73-.05-4.68-4.71-74.4-74.93-75.43,74L6975,2793l-6.64,0-106-.7-.71,105.26,0,6.68Zm-109.44,62.38,82.13-80.53.77-114.6.1-16,16,.11,115.42.76,82.16-80.56,11.43-11.22,11.32,11.41,81,81.61,115.33.76,16.11.11-.1,15.93-.77,114.68,81.07,81.65,11.28,11.36-11.47,11.25-82.13,80.52-.77,114.6-.11,16-16-.1-115.42-.76-82.16,80.56L7051.22,3300l-11.32-11.4-81-81.61-115.32-.77-16.12-.1.11-15.93.77-114.69-81.07-81.64-11.29-11.37Zm380.8,452.4-74.88-74.41-74.89,74.41-4.72,4.7h-112.6v111.89l-4.73,4.69-74.88,74.42,74.88,74.41,4.73,4.7v111.89h112.6l4.72,4.7,74.89,74.41,74.88-74.41,4.73-4.7h112.6V3698.43l4.72-4.7,74.89-74.41-74.89-74.42-4.72-4.69V3428.32H7133Zm-63.47-108.43,81.57,81.06h131.5v130.67L7359.4,3608l11.41,11.34-11.41,11.34-81.58,81.06v130.67h-131.5l-81.57,81.06-11.41,11.34-11.41-11.34-81.58-81.06h-131.5V3711.72l-81.57-81.06-11.41-11.34,11.41-11.34,81.57-81.06V3396.25h131.5l81.58-81.06,11.41-11.34Zm563.84-2791-74.89-74.42-74.88,74.42-4.73,4.7h-112.6V640.75l-4.72,4.69-74.89,74.42,74.89,74.41,4.72,4.7V910.86h112.6l4.73,4.69L7553.7,990l74.89-74.42,4.72-4.69h112.6V799l4.73-4.7,74.88-74.41-74.88-74.42-4.73-4.69V528.86h-112.6Zm-63.47-108.43,81.57,81.06h131.5V627.46l81.57,81.06,11.41,11.34-11.41,11.34-81.57,81.06V942.93h-131.5L7565.12,1024l-11.42,11.34L7542.29,1024l-81.57-81.06h-131.5V812.26l-81.57-81.06-11.41-11.34,11.41-11.34,81.57-81.06V496.79h131.5l81.57-81.06,11.41-11.34Zm-207.9,883.45-75.4,73.93,74.43,75,4.64,4.68,0,6.6-.7,105.35,105.93.7,6.72,0,4.69,4.72,74.4,74.93,75.43-74,4.71-4.62,6.64,0,106,.7.71-105.26,0-6.69,4.74-4.65,75.41-73.93-74.44-75-4.64-4.68,0-6.6.7-105.35-105.93-.7-6.72,0-4.68-4.71-74.4-74.93-75.44,74-4.71,4.61-6.63,0-106-.7-.7,105.27-.05,6.67Zm-109.44,62.38,82.13-80.53.77-114.59.1-16,16,.11,115.42.76,82.16-80.56,11.43-11.22,11.32,11.41,81,81.61,115.32.77,16.11.1-.1,15.93-.77,114.69,81.07,81.64,11.28,11.36-11.47,11.25-82.12,80.53-.77,114.6-.11,16-16-.11-115.41-.76L7563,1679.1l-11.44,11.21-11.32-11.4-81-81.61-115.33-.76-16.11-.11.11-15.93.76-114.68-81.06-81.65-11.29-11.36ZM7628.59,1814l-74.89-74.41L7478.82,1814l-4.73,4.7h-112.6v111.89l-4.72,4.7-74.89,74.41,74.89,74.42,4.72,4.69v111.89h112.6l4.73,4.7,74.88,74.41,74.89-74.41,4.72-4.7h112.6V2088.77l4.73-4.69,74.88-74.42-74.88-74.41-4.73-4.7V1818.66h-112.6Zm-63.47-108.43,81.57,81.06h131.5v130.67l81.57,81.06,11.41,11.34L7859.76,2021l-81.57,81.06v130.67h-131.5l-81.57,81.06-11.42,11.34-11.41-11.34-81.57-81.06h-131.5V2102.06L7247.65,2021l-11.41-11.34,11.41-11.34,81.57-81.06V1786.59h131.5l81.57-81.06,11.41-11.34ZM7357.22,2589l-75.4,73.94,74.43,75,4.64,4.67,0,6.61-.7,105.35,105.93.7,6.72,0,4.69,4.72,74.4,74.93,75.43-74,4.71-4.62,6.64.05,106,.7.71-105.27,0-6.68,4.74-4.65,75.41-73.94-74.44-75-4.64-4.68,0-6.59.7-105.36-105.93-.7-6.72,0-4.68-4.72-74.4-74.92-75.44,74-4.71,4.61-6.63,0-106-.69-.7,105.26-.05,6.68Zm-109.44,62.39,82.13-80.53.77-114.6.1-16,16,.1,115.42.77,82.16-80.56,11.43-11.22,11.32,11.41,81,81.61,115.32.76,16.11.1-.1,15.94-.77,114.68,81.07,81.65,11.28,11.35-11.47,11.25-82.12,80.53-.77,114.6-.11,16-16-.1-115.41-.76L7563,2968.9l-11.44,11.22-11.32-11.4-81-81.61-115.33-.77-16.11-.11.11-15.92.76-114.69L7247.6,2674l-11.29-11.37Zm380.81,452.4-74.89-74.41-74.88,74.41-4.73,4.7h-112.6v111.89l-4.72,4.69-74.89,74.42,74.89,74.41,4.72,4.7v111.89h112.6l4.73,4.7,74.88,74.41,74.89-74.41,4.72-4.7h112.6V3378.58l4.73-4.7,74.88-74.41-74.88-74.42-4.73-4.69V3108.47h-112.6Zm-63.47-108.43,81.57,81h131.5v130.68l81.57,81.06,11.41,11.34-11.41,11.34-81.57,81.06v130.67h-131.5l-81.57,81.06-11.42,11.34-11.41-11.34-81.57-81.06h-131.5V3391.87l-81.57-81.06-11.41-11.34,11.41-11.34,81.57-81.06V3076.39h131.5l81.57-81L7553.7,2984ZM7869.66,329.23l-75.4,73.93,74.44,75,4.64,4.68,0,6.6-.7,105.35,105.93.7,6.72,0,4.68,4.72,74.4,74.93,75.44-74,4.7-4.61,6.65,0,106,.7.7-105.27,0-6.67,4.75-4.66L8338,406.76l-74.44-74.95-4.65-4.68,0-6.6.7-105.36-105.93-.69-6.73,0-4.68-4.73L8068,134.79l-75.43,74-4.71,4.62-6.64,0-106-.7-.7,105.26-.05,6.69Zm-109.43,62.38,82.13-80.53.76-114.6.11-16,16,.11,115.41.76,82.16-80.56,11.44-11.21,11.32,11.4,81,81.61,115.32.76,16.11.11-.1,15.93-.77,114.68,81.07,81.65,11.28,11.36-11.47,11.25-82.13,80.53-.77,114.59-.11,16-16-.1-115.42-.76-82.16,80.56L8064,720.36,8052.71,709l-81-81.61-115.32-.77-16.12-.1.11-15.93.77-114.69L7760,414.22l-11.29-11.36ZM8141,844l-74.88-74.41L7991.26,844l-4.72,4.7h-112.6V960.6l-4.73,4.69-74.88,74.42,74.88,74.41,4.73,4.7v111.89h112.6l4.72,4.7,74.89,74.41,74.88-74.41,4.73-4.7h112.6V1118.82l4.72-4.7,74.89-74.41-74.89-74.42-4.72-4.69V848.71h-112.6Zm-63.47-108.43,81.57,81.06h131.5V947.31l81.57,81.06,11.42,11.34-11.42,11.34-81.57,81.06v130.67h-131.5l-81.57,81.06-11.41,11.34-11.41-11.34-81.58-81.06H7841.67V1132.11l-81.58-81.06-11.41-11.34,11.41-11.34,81.58-81.06V816.64h131.49l81.58-81.06,11.41-11.34ZM7869.66,1619l-75.4,73.94,74.44,75,4.64,4.67,0,6.6-.7,105.36,105.93.7,6.72,0,4.68,4.73,74.4,74.92,75.44-74,4.7-4.62,6.65.05,106,.69.7-105.26,0-6.69,4.75-4.65,75.41-73.93-74.44-75-4.65-4.68,0-6.6.7-105.35-105.93-.7-6.73,0-4.68-4.71-74.4-74.93-75.43,74-4.71,4.61-6.64,0-106-.7-.7,105.27-.05,6.68Zm-109.43,62.39,82.13-80.53.76-114.6.11-16,16,.11,115.41.76,82.16-80.55,11.44-11.22,11.32,11.4,81,81.61,115.32.77,16.11.1-.1,15.93-.77,114.69,81.07,81.64,11.28,11.36-11.47,11.25-82.13,80.53-.77,114.6-.11,16-16-.1-115.42-.77L8075.46,1999,8064,2010.16l-11.31-11.4-81-81.61-115.32-.76-16.12-.11.11-15.93.77-114.68L7760,1704l-11.29-11.36Zm380.8,452.4-74.88-74.42-74.89,74.42-4.72,4.69h-112.6V2250.4l-4.73,4.7-74.88,74.41,74.88,74.42,4.73,4.69v111.9h112.6l4.72,4.69,74.89,74.42,74.88-74.42,4.73-4.69h112.6v-111.9l4.72-4.69,74.89-74.42-74.89-74.41-4.72-4.7V2138.51h-112.6Zm-63.47-108.44,81.57,81.06h131.5v130.67l81.57,81.07,11.42,11.33-11.42,11.34-81.57,81.06v130.67h-131.5l-81.57,81.07L8066.15,2645l-11.41-11.33-81.58-81.07H7841.67V2421.91l-81.58-81.06-11.41-11.34,11.41-11.33,81.58-81.07V2106.44h131.49l81.58-81.06,11.41-11.34Zm-207.9,883.46-75.4,73.93,74.44,75,4.64,4.68,0,6.6-.7,105.35,105.93.7,6.72,0,4.68,4.72,74.4,74.93,75.44-74,4.7-4.62,6.65.05,106,.7.7-105.27,0-6.68,4.75-4.65,75.41-73.93-74.44-75-4.65-4.69,0-6.59.7-105.36-105.93-.69L8147,2794l-4.68-4.71L8068,2714.4l-75.43,74-4.71,4.61-6.64,0-106-.7-.7,105.26-.05,6.68Zm-109.43,62.38,82.13-80.53.76-114.6.11-16,16,.11,115.41.76,82.16-80.56,11.44-11.22,11.32,11.41,81,81.61L8276,2763l16.11.11L8292,2779l-.77,114.68,81.07,81.65,11.28,11.36-11.47,11.25-82.13,80.52-.77,114.6-.11,16-16-.1-115.42-.76-82.16,80.56L8064,3300l-11.31-11.4-81-81.61-115.32-.77-16.12-.1.11-15.93.77-114.69L7760,2993.83l-11.29-11.37Zm380.8,452.4-74.88-74.41-74.89,74.41-4.72,4.7h-112.6v111.89l-4.73,4.69-74.88,74.42,74.88,74.41,4.73,4.7v111.89h112.6l4.72,4.7,74.89,74.41L8141,3815l4.73-4.7h112.6V3698.43l4.72-4.7,74.89-74.41-74.89-74.42-4.72-4.69V3428.32h-112.6Zm-63.47-108.43,81.57,81.06h131.5v130.67L8372.2,3608l11.42,11.34-11.42,11.34-81.57,81.06v130.67h-131.5l-81.57,81.06-11.41,11.34-11.41-11.34-81.58-81.06H7841.67V3711.72l-81.58-81.06-11.41-11.34,11.41-11.34,81.58-81.06V3396.25h131.49l81.58-81.06,11.41-11.34Zm563.84-2791-74.89-74.42-74.88,74.42-4.73,4.7H8374.3V640.75l-4.72,4.69-74.89,74.42,74.89,74.41,4.72,4.7V910.86h112.6l4.73,4.69L8566.51,990l74.89-74.42,4.72-4.69h112.6V799l4.73-4.7,74.88-74.41-74.88-74.42-4.73-4.69V528.86h-112.6Zm-63.48-108.43,81.58,81.06H8791V627.46l81.57,81.06L8884,719.86l-11.41,11.34L8791,812.26V942.93H8659.5L8577.92,1024l-11.41,11.34L8555.1,1024l-81.57-81.06H8342V812.26l-81.57-81.06L8249,719.86l11.42-11.34L8342,627.46V496.79h131.5l81.57-81.06,11.41-11.34ZM8370,1299.18l-75.4,73.93,74.43,75,4.64,4.68,0,6.6-.7,105.35,105.93.7,6.72,0,4.69,4.72,74.4,74.93,75.43-74,4.71-4.62,6.64,0,106,.7.71-105.26,0-6.69,4.75-4.65,75.4-73.93-74.44-75-4.64-4.68,0-6.6.71-105.35-105.94-.7-6.72,0-4.68-4.71-74.4-74.93-75.44,74-4.71,4.61-6.64,0-106-.7-.7,105.27,0,6.67Zm-109.44,62.38,82.13-80.53.77-114.59.1-16,16,.11,115.41.76,82.16-80.56,11.43-11.22,11.32,11.41,81,81.61,115.32.77,16.11.1-.1,15.93-.77,114.69,81.07,81.64L8883.9,1377l-11.47,11.25-82.13,80.53-.76,114.6-.11,16-16-.11-115.41-.76-82.16,80.56-11.44,11.21-11.32-11.4-81-81.61-115.33-.76-16.11-.11.11-15.93.77-114.68-81.08-81.65-11.28-11.36ZM8641.4,1814l-74.89-74.41L8491.63,1814l-4.73,4.7H8374.3v111.89l-4.72,4.7-74.89,74.41,74.89,74.42,4.72,4.69v111.89h112.6l4.73,4.7,74.88,74.41,74.89-74.41,4.72-4.7h112.6V2088.77l4.73-4.69,74.88-74.42-74.88-74.41-4.73-4.7V1818.66h-112.6Zm-63.48-108.43,81.58,81.06H8791v130.67l81.57,81.06,11.41,11.34L8872.57,2021,8791,2102.06v130.67H8659.5l-81.58,81.06-11.41,11.34-11.41-11.34-81.57-81.06H8342V2102.06L8260.46,2021,8249,2009.66l11.42-11.34,81.57-81.06V1786.59h131.5l81.57-81.06,11.41-11.34ZM8370,2589l-75.4,73.94,74.43,75,4.64,4.67,0,6.61-.7,105.35,105.93.7,6.72,0,4.69,4.72,74.4,74.93,75.43-74,4.71-4.62,6.64.05,106,.7.71-105.27,0-6.68,4.75-4.65,75.4-73.94-74.44-75-4.64-4.68,0-6.59.71-105.36-105.94-.7-6.72,0-4.68-4.72-74.4-74.92-75.44,74-4.71,4.61-6.64,0-106-.69-.7,105.26,0,6.68Zm-109.44,62.39,82.13-80.53.77-114.6.1-16,16,.1,115.41.77,82.16-80.56,11.43-11.22,11.32,11.41,81,81.61,115.32.76,16.11.1-.1,15.94-.77,114.68,81.07,81.65,11.28,11.35-11.47,11.25-82.13,80.53-.76,114.6-.11,16-16-.1-115.41-.76-82.16,80.55-11.44,11.22-11.32-11.4-81-81.61-115.33-.77-16.11-.11.11-15.92.77-114.69L8260.4,2674l-11.28-11.37Zm380.81,452.4-74.89-74.41-74.88,74.41-4.73,4.7H8374.3v111.89l-4.72,4.69-74.89,74.42,74.89,74.41,4.72,4.7v111.89h112.6l4.73,4.7,74.88,74.41,74.89-74.41,4.72-4.7h112.6V3378.58l4.73-4.7,74.88-74.41-74.88-74.42-4.73-4.69V3108.47h-112.6Zm-63.48-108.43,81.58,81H8791v130.68l81.57,81.06,11.41,11.34-11.41,11.34L8791,3391.87v130.67H8659.5l-81.58,81.06-11.41,11.34-11.41-11.34-81.57-81.06H8342V3391.87l-81.57-81.06L8249,3299.47l11.42-11.34,81.57-81.06V3076.39h131.5l81.57-81,11.41-11.34Zm-304,982h45.2l-24.47-24.65,75.4-73.93,4.74-4.66,0-6.67.7-105.27,106,.7,6.64,0,4.71-4.61,75.44-74,74.4,74.93,4.68,4.71,6.72.05,105.94.7-.71,105.35,0,6.6,4.64,4.68,74.44,75-21.46,21h45.81l9.68-9.49,11.47-11.25-11.28-11.36-81.07-81.64.77-114.69.1-15.93-16.11-.11-115.32-.76-81-81.61-11.32-11.4-11.43,11.21L8475,3730.9l-115.41-.76-16-.11-.1,16-.77,114.59-82.13,80.53-11.47,11.25,11.28,11.36Zm-224.38,0h37l-6.94-7-11.32-11.4-11.44,11.22Zm-788.43,0h45.2l-24.47-24.65,75.4-73.93,4.74-4.66.05-6.67.7-105.27,106,.7,6.63,0,4.71-4.61,75.44-74,74.4,74.93,4.68,4.71,6.72.05,105.93.7-.7,105.35,0,6.6,4.64,4.68,74.44,75-21.46,21h45.81l9.68-9.49,11.47-11.25-11.28-11.36-81.07-81.64.77-114.69.1-15.93-16.11-.11-115.32-.76-81-81.61-11.32-11.4-11.43,11.21-82.16,80.56-115.42-.76-16-.11-.1,16-.77,114.59-82.13,80.53-11.47,11.25,11.29,11.36Zm-224.39,0h37l-6.94-7-11.32-11.4L7044,3970.2Zm-770.55,0h45.2l-24.48-24.65,75.4-73.93,4.75-4.66,0-6.67.71-105.27,106,.7,6.63,0,4.72-4.61,75.43-74,74.4,74.93,4.68,4.71,6.73.05,105.93.7-.7,105.35,0,6.6,4.65,4.68,74.43,75-21.46,21H6855l9.68-9.49,11.47-11.25-11.28-11.36-81.07-81.64.76-114.69.11-15.93-16.11-.11-115.33-.76-81-81.61-11.33-11.4-11.43,11.21-82.16,80.56-115.41-.76-16-.11-.11,16-.76,114.59-82.13,80.53-11.48,11.25,11.29,11.36Zm-224.39,0h37l-6.95-7-11.32-11.4-11.43,11.22Zm-770.56,0h45.2l-24.47-24.65,75.4-73.93,4.74-4.66.05-6.67.7-105.27,106,.7,6.63,0,4.71-4.61,75.44-74,74.4,74.93,4.68,4.71,6.73.05,105.93.7-.71,105.35,0,6.6,4.65,4.68,74.43,75-21.46,21h45.81l9.68-9.49,11.47-11.25-11.28-11.36-81.07-81.64.77-114.69.1-15.93-16.11-.11-115.32-.76-81-81.61-11.32-11.4-11.43,11.21-82.16,80.56-115.41-.76-16-.11-.1,16-.77,114.59-82.13,80.53-11.47,11.25,11.29,11.36Zm-224.38,0h37l-6.94-7-11.32-11.4-11.43,11.22Zm-770.56,0h45.2L4297,3952.72l75.41-73.93,4.74-4.66.05-6.67.7-105.27,106,.7,6.64,0,4.71-4.61,75.43-74,74.4,74.93,4.69,4.71,6.72.05,105.93.7-.7,105.35-.05,6.6,4.65,4.68,74.44,75-21.47,21h45.82l9.68-9.49,11.47-11.25L4875,3945.27l-81.07-81.64.77-114.69.1-15.93-16.11-.11-115.32-.76-81-81.61-11.32-11.4-11.43,11.21-82.16,80.56-115.42-.76-16-.11-.11,16-.76,114.59L4263,3941.17l-11.48,11.25,11.29,11.36Zm-224.39,0h37l-6.95-7-11.32-11.4-11.43,11.22Zm-770.56,0h45.21L3302,3952.72l75.4-73.93,4.75-4.66,0-6.67.71-105.27,106,.7,6.63,0,4.72-4.61,75.43-74,74.4,74.93,4.68,4.71,6.73.05,105.93.7-.71,105.35,0,6.6,4.65,4.68,74.43,75-21.46,21h45.81l9.69-9.49,11.47-11.25L3880,3945.27,3799,3863.63l.77-114.69.1-15.93-16.11-.11-115.32-.76-81-81.61-11.32-11.4-11.43,11.21-82.16,80.56-115.41-.76-16-.11-.11,16-.77,114.59L3268,3941.17l-11.48,11.25,11.29,11.36Zm-224.38,0h37l-6.95-7-11.32-11.4-11.43,11.22Zm-770.56,0h45.2l-24.47-24.65,75.4-73.93,4.74-4.66.05-6.67.7-105.27,106,.7,6.64,0,4.71-4.61,75.44-74,74.4,74.93,4.68,4.71,6.72.05,105.93.7-.7,105.35,0,6.6,4.64,4.68,74.44,75-21.46,21h45.81l9.68-9.49,11.47-11.25-11.28-11.36L2804,3863.63l.77-114.69.1-15.93-16.11-.11-115.32-.76-81-81.61-11.32-11.4-11.43,11.21-82.16,80.56-115.42-.76-16-.11-.1,16-.77,114.59-82.13,80.53-11.47,11.25,11.28,11.36Zm-224.39,0h37l-6.94-7-11.32-11.4-11.44,11.22Zm-770.55,0h45.2l-24.48-24.65,75.4-73.93,4.75-4.66,0-6.67.71-105.27,106,.7,6.64,0,4.71-4.61,75.43-74,74.4,74.93,4.68,4.71,6.73.05,105.93.7-.7,105.35-.05,6.6,4.65,4.68,74.43,75-21.46,21h45.82l9.68-9.49,11.47-11.25-11.29-11.36-81.06-81.64.76-114.69L1810,3733l-16.11-.11-115.33-.76-81-81.61-11.33-11.4-11.43,11.21-82.16,80.56-115.41-.76-16-.11-.11,16-.77,114.59-82.12,80.53-11.48,11.25,11.29,11.36Zm-224.39,0h37l-7-7-11.32-11.4-11.43,11.22Zm-770.56,0h45.2l-24.47-24.65,75.4-73.93,4.74-4.66,0-6.67.7-105.27,106,.7,6.63,0,4.71-4.61,75.44-74,74.4,74.93L670,3764l6.72.05,105.94.7-.71,105.35,0,6.6,4.64,4.68,74.44,75-21.46,21h45.81l9.68-9.49,11.47-11.25-11.28-11.36-81.07-81.64.77-114.69L815,3733l-16.11-.11-115.32-.76-81-81.61-11.32-11.4-11.43,11.21-82.16,80.56-115.41-.76-16-.11-.1,16-.77,114.59-82.13,80.53-11.47,11.25L283,3963.78Zm-224.38,0h37l-6.94-7L90.85,3959,79.42,3970.2Zm-49.33-608v45.36l66-65.54,74.89,74.41,4.72,4.7h112.6v111.89l4.72,4.69,74.89,74.42-74.89,74.41-4.72,4.7v111.89H168.34l-4.72,4.7-74.89,74.41-66-65.54v45.36l54.55,54.2,11.41,11.34,11.41-11.34,81.57-81.06h131.5V3711.72l81.58-81.06,11.41-11.34L394.79,3608l-81.58-81.06V3396.25H181.71l-81.57-81.06-11.41-11.34-11.41,11.34Zm0-633.46v44.92l67.77-66.45L165,2789.33l4.67,4.71,6.73.05,105.93.69-.7,105.36-.05,6.59,4.65,4.69,74.43,75-75.4,73.93-4.75,4.65,0,6.68-.7,105.27-106-.7-6.64-.05-4.71,4.62-75.43,74-64.15-64.6v45.52l52.52,52.9L86.61,3300,98,3288.76l82.16-80.56,115.42.76,16,.1.11-16,.77-114.6,82.13-80.52,11.47-11.25-11.28-11.36-81.07-81.65.76-114.68.11-15.93-16.11-.11-115.33-.76-81-81.61-11.32-11.41-11.43,11.22Zm0-656.34V2125l66-65.55,74.89,74.42,4.72,4.69h112.6V2250.4l4.72,4.7,74.89,74.41-74.89,74.42-4.72,4.69v111.9H168.34l-4.72,4.69-74.89,74.42-66-65.55v45.36l54.55,54.21L88.73,2645l11.41-11.33,81.57-81.07h131.5V2421.91l81.58-81.06,11.41-11.34-11.41-11.33-81.58-81.07V2106.44H181.71l-81.57-81.06L88.73,2014l-11.41,11.34Zm0-633.47v44.93l67.77-66.46L165,1499.52l4.67,4.71,6.73,0,105.93.7-.7,105.35-.05,6.6,4.65,4.68,74.43,75-75.4,73.93-4.75,4.65,0,6.69-.7,105.26-106-.69-6.64-.05-4.71,4.62-75.43,74-64.15-64.6v45.53l52.52,52.89,11.32,11.4L98,1999l82.16-80.56,115.42.77,16,.1.11-16,.77-114.6,82.13-80.53,11.47-11.25-11.28-11.36-81.07-81.64.76-114.69.11-15.93-16.11-.1-115.33-.77-81-81.61-11.32-11.4-11.43,11.22Zm0-656.34v45.36l66-65.54L163.62,844l4.72,4.7h112.6V960.6l4.72,4.69,74.89,74.42-74.89,74.41-4.72,4.7v111.89H168.34l-4.72,4.7-74.89,74.41-66-65.54v45.36l54.55,54.2,11.41,11.34,11.41-11.34,81.57-81.06h131.5V1132.11l81.58-81.06,11.41-11.34-11.41-11.34-81.58-81.06V816.64H181.71l-81.57-81.06L88.73,724.24,77.32,735.58Zm0-633.46v44.92l67.77-66.45L165,209.71l4.67,4.73,6.73,0,105.93.69-.7,105.36-.05,6.6,4.65,4.68,74.43,74.95-75.4,73.94-4.75,4.66,0,6.67-.7,105.27-106-.7-6.64,0-4.71,4.61-75.43,74-64.15-64.6v45.52L75.29,709l11.32,11.4L98,709.15l82.16-80.56,115.42.76,16,.1.11-16,.77-114.59,82.13-80.53,11.47-11.25-11.28-11.36-81.07-81.65.76-114.68.11-15.93-16.11-.11-115.33-.76-81-81.61L90.85,89.57,79.42,100.78ZM842.34,22.63h-45.2L861,86.91l-75.4,73.94-4.75,4.65,0,6.68-.71,105.27-106-.7-6.64,0-4.71,4.61-75.43,74-74.4-74.93-4.69-4.71-6.72,0-105.93-.7.7-105.36,0-6.59-4.64-4.68-74.43-75L379.1,22.63H333.28L283.17,71.76,271.7,83,283,94.37,364.06,176l-.77,114.69-.11,15.93,16.11.1,115.33.77,81,81.61L587,400.51l11.44-11.22,82.16-80.55L796,309.5l16,.11.11-16,.77-114.6L895,98.47l11.47-11.25L895.2,75.85Zm284.35,0h-86L1072.26,54l11.41,11.34L1095.08,54Zm710.6,0h-45.2l63.83,64.28-75.4,73.94-4.75,4.65,0,6.68-.7,105.27-106-.7-6.64,0-4.7,4.61-75.44,74-74.4-74.93-4.68-4.71-6.72,0-105.93-.7.7-105.36,0-6.59-4.65-4.68-74.43-75L1374,22.63h-45.82l-50.1,49.13L1266.64,83l11.29,11.36L1359,176l-.77,114.69-.11,15.93,16.12.1,115.32.77,81,81.61,11.31,11.4,11.44-11.22,82.16-80.55,115.42.76,16,.11.11-16,.77-114.6L1890,98.47l11.47-11.25-11.29-11.37Zm284.35,0h-86L2067.21,54l11.41,11.34L2090,54Zm710.59,0H2787l63.84,64.28-75.4,73.94-4.75,4.65,0,6.68L2770,277.45l-106-.7-6.64,0-4.71,4.61-75.43,74-74.4-74.93-4.69-4.71-6.72,0-105.93-.7.7-105.36,0-6.59-4.64-4.68-74.43-75L2369,22.63h-45.81l-50.11,49.13L2261.59,83l11.28,11.36L2353.94,176l-.77,114.69-.1,15.93,16.11.1,115.33.77,81,81.61,11.32,11.4,11.44-11.22,82.16-80.55,115.41.76,16,.11.11-16,.76-114.6,82.13-80.52,11.47-11.25-11.28-11.37Zm284.35,0h-86L3062.15,54l11.41,11.34L3085,54Zm710.6,0H3782l63.83,64.28-75.4,73.94-4.75,4.65,0,6.68-.7,105.27-106-.7-6.64,0-4.7,4.61-75.44,74-74.4-74.93-4.69-4.71-6.72,0-105.93-.7.71-105.36,0-6.59-4.64-4.68-74.43-75,61.89-60.68h-45.82L3268,71.76,3256.53,83l11.29,11.36L3348.89,176l-.77,114.69-.11,15.93,16.12.1,115.32.77,81,81.61,11.31,11.4,11.44-11.22,82.16-80.55,115.41.76,16,.11.11-16,.77-114.6,82.13-80.52,11.47-11.25L3880,75.85Zm284.35,0h-86L4057.09,54l11.42,11.34L4079.92,54Zm710.59,0h-45.2l63.84,64.28-75.41,73.94-4.75,4.65,0,6.68-.7,105.27-106-.7-6.65,0-4.7,4.61-75.43,74-74.41-74.93-4.68-4.71-6.72,0-105.93-.7.7-105.36,0-6.59-4.64-4.68-74.44-75,61.89-60.68h-45.81L4263,71.76,4251.47,83l11.29,11.36L4343.83,176l-.77,114.69-.11,15.93,16.12.1,115.32.77,81,81.61,11.32,11.4,11.43-11.22,82.16-80.55,115.42.76,16,.11.11-16,.77-114.6,82.13-80.52,11.47-11.25L4875,75.85Zm284.35,0h-86L5052,54l11.41,11.34L5074.86,54Zm710.59,0h-45.2l63.84,64.28-75.4,73.94-4.75,4.65,0,6.68-.71,105.27-106-.7-6.64,0-4.71,4.61-75.43,74-74.4-74.93-4.69-4.71-6.72,0-105.93-.7.71-105.36,0-6.59-4.64-4.68-74.43-75,61.89-60.68H5308l-50.11,49.13L5246.42,83l11.29,11.36L5338.78,176,5338,290.7l-.11,15.93,16.12.1,115.32.77,81,81.61,11.31,11.4,11.44-11.22,82.16-80.55,115.41.76,16,.11.11-16,.77-114.6,82.12-80.52,11.47-11.25-11.28-11.37Zm284.35,0h-86L6047,54l11.41,11.34L6069.81,54Zm710.6,0h-45.2l63.83,64.28-75.4,73.94-4.75,4.65,0,6.68-.7,105.27-106-.7-6.65,0-4.7,4.61-75.44,74-74.4-74.93-4.68-4.71-6.72,0-105.93-.7.7-105.36,0-6.59-4.64-4.68-74.44-75,61.89-60.68h-45.82l-50.1,49.13L6241.36,83l11.29,11.36L6333.72,176,6333,290.7l-.11,15.93,16.12.1,115.32.77,81,81.61,11.32,11.4,11.43-11.22,82.16-80.55,115.41.76,16,.11.11-16,.77-114.6,82.13-80.52,11.47-11.25-11.28-11.37Zm284.35,0h-86L7041.93,54l11.41,11.34L7064.75,54Zm710.59,0h-45.2l63.84,64.28-75.41,73.94-4.74,4.65,0,6.68-.71,105.27-106-.7-6.64,0-4.71,4.61-75.43,74-74.4-74.93-4.69-4.71-6.72,0-105.93-.7.7-105.36,0-6.59-4.64-4.68-74.43-75,61.88-60.68h-45.81l-50.11,49.13L7236.31,83l11.29,11.36L7328.66,176l-.76,114.69-.11,15.93,16.11.1,115.33.77,81,81.61,11.32,11.4L7563,389.29l82.16-80.55,115.41.76,16,.11.11-16,.77-114.6,82.12-80.52,11.47-11.25-11.28-11.37Zm302.22,0h-86L8054.74,54l11.41,11.34L8077.56,54Zm710.59,0h-45.2l63.84,64.28L8763,160.85l-4.75,4.65,0,6.68-.71,105.27-106-.7-6.64,0-4.71,4.61-75.43,74-74.4-74.93-4.69-4.71-6.72,0L8373,274.9l.7-105.36,0-6.59-4.64-4.68-74.43-75,61.88-60.68H8310.7l-50.11,49.13L8249.12,83l11.28,11.36L8341.48,176l-.77,114.69-.11,15.93,16.11.1,115.33.77,81,81.61,11.32,11.4,11.44-11.22L8658,308.74l115.41.76,16,.11.11-16,.76-114.6,82.13-80.52,11.47-11.25-11.28-11.37Zm-8688,0L100.14,54,88.73,65.38,77.32,54,45.71,22.63Z" transform="translate(-22.77 -22.63)"/></g></g></g></g></svg>