<svg xmlns="http://www.w3.org/2000/svg" viewBox="0 0 1197.88 510.84"><defs><style>.cls-1,.cls-2{fill:#fff;}.cls-1{fill-rule:evenodd;}</style></defs><g id="Layer_2" data-name="Layer 2"><g id="Layer_1-2" data-name="Layer 1"><path class="cls-1" d="M1057,261.14c-3.6,5.2-9.6,2.1-14.5,4.2.3,1,.1,2.4.8,3.2a34.72,34.72,0,0,0,4.5,4.1c9.7,8.7,20.5,15.2,32.2,20.8,14.4,6.9,28.4,14.5,42.5,21.8,1.6.8,3.3,1.5,4.9,2.2,10.3,4.5,17,12.2,19.6,23.2,3.9,16.4,2.5,32.7-1.7,48.8a21,21,0,0,1-7.4,11.5c-13.6,10.9-26,23.6-41.3,32-3.4,1.8-6.4,4.3-9.6,6.6a407.21,407.21,0,0,1-36,23.8c-7.5,4.4-14.8,9.3-22.2,13.9a137.16,137.16,0,0,1-34.3,15.4c-9.9,2.9-18.9.9-27.5-3.6a23.47,23.47,0,0,1-6.8-6.1c-4.9-5.9-7.4-12.9-8.7-20.3a88.15,88.15,0,0,1-.8-24.6c.6-7.2.9-14.4,2.8-21.4a15.87,15.87,0,0,0,.6-3.8,2.27,2.27,0,0,0-3.3-2,42.13,42.13,0,0,0-5.2,3.4c-21,17.6-45.8,25-72.5,27.2-4.3.4-8.7.1-13.1.1-7.7,0-14.6-2.4-21.2-6.2a31.71,31.71,0,0,1-13.9-15.9c-5.1-12.5-8.5-25.2-9.3-38.8-1.4-23.8-3-47.7-3.5-71.6-.6-28.3-1.4-56.5-2.8-84.8-.8-17.2-.7-34.4-1.7-51.7-1.7-24.9-1.7-49.8-4.5-74.7-.8-6.9-1.9-13.7-2.9-20.6-.9-5.6-1.6-11.2-2.8-16.8s-2.8-11-4.2-16.4a17.4,17.4,0,0,0-1.8-3.3,2.59,2.59,0,0,0-3.7-.6c-.1.1-.3.2-.4.4a18,18,0,0,0-3.1,4.3c-2.9,6-5.8,12.1-8.7,18-.9,2-1.5,4.4-4,4.9-1.8-.6-1.9-1.9-1.8-3.2.5-3.9.9-7.6,1.6-11.4a105.64,105.64,0,0,1,8.6-28,54.91,54.91,0,0,1,9.2-14.2c4.2-4.5,8.4-4.3,12.3.6a23.57,23.57,0,0,1,3.5,5.9c2.7,6.9,5.7,13.8,7.5,21a293.41,293.41,0,0,1,7.2,39.4c3.1,29.6,5,59.4,5.3,89.2,0,2.8.2,5.6.3,7.9a4,4,0,0,0,5.4-.1c8.5-6.3,17.1-12.3,24.4-20a70.61,70.61,0,0,1,14.5-11.5,111.71,111.71,0,0,0,12.3-9.1,276.4,276.4,0,0,1,29.1-21.5c9.9-6.4,19.3-13.6,28.8-20.6,4.4-3.1,8.9-6,13.6-8.7,7.4-4.2,14.2-9.2,21.4-13.9,3.9-2.6,7.6-5.2,11.6-7.5,15.9-9.4,31.9-18.8,47.9-28,5.2-2.9,10.6-5.2,15.9-7.7,3-1.5,6-2.9,9-4.4a124.66,124.66,0,0,1,24.2-10,50.34,50.34,0,0,1,12.1-2.1c8.2-.2,13.5,4.8,14.5,12.9.9,7.1-.6,13.9-3.3,20.3a98.69,98.69,0,0,1-7.3,13.6c-4.1,6.5-8.3,13-12.7,19.3a34.75,34.75,0,0,1-5,5.8,151,151,0,0,0-23.6,27.4c-.6.9-1.1,1.7-1.7,2.5-2.8,2.9-4.5,6.1-3,10.4.5,1.4-.4,3.6-1.3,5-3.1,4.7-6.5,9.2-10,13.7-1.7,1.9-3.5,3.8-5.3,5.5-10,10.6-8.3,9.5-23.8,14.5-4.1,1.4-8.4,2.4-12.6,3.5-.2,0-.4-.2-.6-.4-.8-1.2-.2-1.9.7-2.5,6.9-4.1,13.8-8,20.6-12,3.1-1.8,6.3-3.6,9.2-5.6a3.84,3.84,0,0,0,1.6-3.1,3.9,3.9,0,0,0-2.6-2.4c-6.2-.8-12.2-1.6-18.4-1.8-4.9-.2-9.8.4-14.6.4-1.7,0-3.3-.7-5-1.1,1.5-6.8,6.7-15.1,11.5-18a17.4,17.4,0,0,1,10.2-2.7c7.5.2,14.9.4,22.3.8,11.2.7,10.1,1.5,15.1-7.7,6.2-11.2,12-22.6,21.5-31.7,6.4-6.2,11.4-13.8,17.1-20.8a30.46,30.46,0,0,0,3.8-5.8c2.9-5.7.2-10.3-6.3-10.7a11.41,11.41,0,0,0-4.5.6,85.94,85.94,0,0,0-21.7,8,44.22,44.22,0,0,1-6.8,3.6c-12,4.8-22.7,11.8-33.6,18.7-12,7.5-24.1,14.8-36,22.4-5.7,3.6-11,7.5-16.6,11.2-3.2,2.1-6.3,4.6-9.8,6.4-7.4,3.8-13.9,8.6-20.5,13.5-8,6.1-16.5,11.4-24.8,17.1-11,7.5-22,15.1-32,24a63.67,63.67,0,0,1-7.5,5.3,156.36,156.36,0,0,0-19,14.5c-6.4,5.6-13.2,10.6-20,15.8-2.4,1.8-5.2,3.1-6.4,6.2,1.1,2.9,3.7,3.7,6,4.8,6.7,3.3,13.4,6.4,20.1,9.8,4.1,2.1,8.2,4.3,12.2,6.7,1.5.8,2.6,2.2,4.4,3.8-1.6,1.3-2.6,2.5-3.9,2.9a40.76,40.76,0,0,1-6.1.9c-1.4.4-2.7.7-4,1.2-.6,2.6.7,3.9,2.2,5,7.5,5.8,14.9,11.9,22.8,17,12,7.9,24.4,15.3,36.6,22.8a63.42,63.42,0,0,0,6.6,3.9c14.9,7.4,27.7,17.7,40.1,28.5,8.1,7.1,13.4,16.2,16.9,26.2,2,5.6,2.1,11.6,1.7,17.5-.9,13.8-6.5,25.9-14.3,36.9a30.37,30.37,0,0,0-5.4,12.5c-1.9,9.4-3.3,18.7-2.8,28.4.4,5.5,1.7,10.7,5,15.2,5,6.9,11.7,10.7,20.4,10.3a45.24,45.24,0,0,0,15-3.2,214.57,214.57,0,0,0,30.6-14.6c6.2-3.7,12.6-6.9,18.9-10.4,2.7-1.5,5.4-2.9,7.9-4.6,13.6-8.8,27.3-17.5,40.6-26.6,12.5-8.6,25-17.3,37.1-26.3,7.4-5.4,7.5-10.1.6-16.4-6.6-6.1-14.5-10.6-22.6-14.7-13.7-7-27.3-14.2-41.2-21.1-19.2-9.7-34.9-23.4-48.3-40.1-3.9-4.9-7.9-9.4-13.1-12.9-4.4-2.9-6.4-7.1-6-12.5.3-5.2.1-10.3.2-15.5,0-1.3,0-2.6.1-3.9a3.56,3.56,0,0,1,4-3.2.9.9,0,0,1,.5.1,16.62,16.62,0,0,1,2.9,1c12.6,6.4,25.3,12.6,37.8,19.1C1053.2,256.74,1056.1,257.84,1057,261.14Zm-230.3-1.7h-.3c.6,9,1.2,18,1.6,26.9,1.1,27,2,54,3,80.9.4,8.6,2.6,16.7,5.6,24.7,3.7,9.4,10.9,14.4,20.4,15.2a140.32,140.32,0,0,0,21.5-.3c5.2-.4,10.2-.9,15.3-1.8,5.3-.8,10.8-1.3,15.8-3,19.5-6.6,36.5-17.7,52-30.9a66.47,66.47,0,0,0,6.5-6.5,45.38,45.38,0,0,0,3.6-5,5.35,5.35,0,0,0-.4-7.1,39.28,39.28,0,0,0-5.5-5.3c-8.1-6.4-16.4-12.5-24.5-18.7a140.57,140.57,0,0,0-20.8-13.2,98.25,98.25,0,0,1-11.2-6.8c-10-6.7-19.9-13.8-30.1-20.2a136.3,136.3,0,0,1-25.6-19.7c-7.5-7.5-16.2-13.5-22.4-22.2-.2-.2-.4-.5-.6-.5a6.63,6.63,0,0,0-2.8-.5,2.26,2.26,0,0,0-1.3,1.7C826.7,251.14,826.7,255.34,826.7,259.44Z"/><path class="cls-1" d="M236.3,360.34a27.11,27.11,0,0,1-7.2-1.2,23.78,23.78,0,0,0,9.8,1.7l4.6-.4C241.1,360.44,238.7,360.44,236.3,360.34Zm-27.2-32.2v.4a45.18,45.18,0,0,0,7.5,20.2C212.9,342.34,210,335.54,209.1,328.14Zm-11.8,30.5a85.08,85.08,0,0,0,2.9,8.5C199.2,364.34,198.2,361.44,197.3,358.64Zm-8.6-119.3c.1,2.1.1,4.1.1,6.2.3,16.1.8,32.3,1.6,48.4C190.1,276,189.4,258.34,188.7,239.34Z"/><path class="cls-1" d="M516.3,492.24c-.4-1.6.7-2.3,1.8-2.9,7.7-3.7,15.3-7.5,23-11,7.5-3.4,15-6.7,22.6-9.9,5.4-2.2,11-4.1,16.6-6.2,1.7-.6,3.4-1.2,5.1-1.9,21.4-9.5,42.8-18.8,64-28.6,13.3-6.2,26.1-13.4,39.1-20,4.8-2.5,9.6-4.9,14.5-7.3.9-.4,1.8-.8,2.8-1.3,11.1-6.9,22.3-13.8,33.4-20.7,2.6-1.7,4.9-3.8,7.6-5.2,11-5.6,19.8-13.7,28.4-22.4a44.67,44.67,0,0,0,3.5-4.1,9.46,9.46,0,0,0,1-10.2c-1.7-3.5-3.4-6.9-4.9-10.5-6.2-15.5-12.2-31.1-18.4-46.6-1.9-4.8-4.1-9.4-6.4-14-1.6-3-2.7-6.1-2.1-9.6,1.1-7.1,2.3-14.2,3.5-21.3.2-.7.5-1.5.7-2.1a2.81,2.81,0,0,1,3.7-1.2c.1,0,.2.1.3.2a19.86,19.86,0,0,1,3.4,3.1c2.4,2.8,4.7,5.5,6.9,8.3a92.2,92.2,0,0,0,13.3,13.9c4.8,4.1,4.9,4.4,7.1,9.1a13,13,0,0,1-2.6,1.4,15.06,15.06,0,0,1-3-.1c-5.4-.2-6.4,1.2-4.1,6.4.9,2.1,1.9,4.2,2.9,6.3a197.79,197.79,0,0,1,12.6,33.1,66.73,66.73,0,0,1,.6,33.5c-.7,3-1.6,6-2.4,8.9a41.61,41.61,0,0,1-10.7,18.5q-9,9.15-18,18a57.11,57.11,0,0,1-7.2,5.8c-6.9,5-13.8,9.9-20.8,14.6q-7.65,5.25-15.6,9.9-21.3,12.45-42.7,24.8c-5.6,3.1-11.4,5.9-17.2,8.7-8.9,4.2-18.5,5.9-28.1,8.3-14.7,3.7-29.3,7.8-44.1,11.1-20.8,4.6-41.2,11.2-62.6,12.7-2.3.2-4.5.6-6.8.7A.46.46,0,0,1,516.3,492.24Z"/><path class="cls-1" d="M1176.7,494c-.3-3.9-.6-5.8-.6-7.8.3-9.5,1-19,1-28.4q.15-37.05-3.1-73.9c-.9-10.2-1.3-20.5-1.8-30.8-.6-9.5-1.1-19-1.7-28.4-1.1-14.4-2.4-28.6-3.5-43-1.1-15.4-2-30.8-3.1-46.1-.5-6.4-1.1-12.8-1.7-19.2s-.8-12.8-1.2-19.2c-.6-7.7-1.2-15.4-1.7-23-.5-9-.8-18-1.2-27-.4-8.7-1.2-17.5-4-25.9a13.8,13.8,0,0,1,.1-9.8c2.3-6.3,4.6-12.5,6.9-18.8a8.32,8.32,0,0,1,1.7-2.6,2.62,2.62,0,0,1,4.5,0,58.69,58.69,0,0,1,3.8,7.5c6.4,17,12.8,34.2,19.1,51.3a98.68,98.68,0,0,1,2.7,9.7,8.13,8.13,0,0,1,0,3.8c-.2,1.1-2.1,2.1-3,1.5-1.7-1.1-3.3-2.4-5-3.6s-3.1-2.5-5.2-4.1c-.7,1.7-1.6,2.7-1.6,3.8.2,7.2.4,14.4.8,21.5.6,10,1.5,20,2.3,30,1.8,23,3.6,46.1,5.3,69.1.4,5.4.7,10.8,1.1,16.1.5,5.9,1.1,11.8,1.7,17.7.3,2.6.6,5.1.7,7.6,1.6,21.5,3,43.1,4.6,64.6.4,4.9.4,9.8.6,14.6.1,4.1.2,8.3,2,12.1a7,7,0,0,1,0,6c-1.7,3.6-1.8,7.5-1.9,11.3-.2,16.4-4.1,32.1-9.1,47.5a106,106,0,0,1-5.2,12C1180.2,491.24,1179,491.84,1176.7,494Z"/><path class="cls-1" d="M672.2.74c3.8,1.5,4.6,4.6,5.7,7.4,4.3,10.7,8.5,21.5,12.7,32.3a183,183,0,0,1,8.1,24c.5,2,1,4,1.6,6,.5,1.7,1.1,3.7-.9,4.8s-3.3-.5-4.9-1.4c-2.3-1.4-3.6-4.5-7.4-4.4-.3,1.5-.9,2.9-.8,4.3.6,8.5,1.3,16.8,2,25.3l3,37.7c1.3,16.4,2.7,32.8,4,49.2.9,13.1,1.7,26.1,2.7,39.2.8,12.1,1.8,24,2.7,36.1,1.1,14.8,2.4,29.7,2.9,44.6a144.36,144.36,0,0,1-1.2,24.6c-1.5,11.4-3.8,22.8-5.8,34.2-1.4,7.2-4.7,13.6-7.8,20.1a4.52,4.52,0,0,1-1.9,2.2,2.72,2.72,0,0,1-2.5-.7,11.36,11.36,0,0,1-.5-4.5c.5-7.2,1.3-14.4,1.7-21.5.8-18.5-.6-37-1.9-55.4-.6-8.5-1-16.9-1.7-25.4-.9-13.1-2-26.1-3-39.1-1.2-15.8-2.5-31.8-3.8-47.7l-1.5-17.7c-1.4-19.5-2.7-38.9-3.9-58.5-.8-13.6-1.7-27.2-2.3-40.8-.3-5.6-.5-11.3-.4-16.9a63.19,63.19,0,0,0-4-23.5,18,18,0,0,1,.1-13.5c2-5.5,3.9-11.1,5.9-16.7A47.31,47.31,0,0,1,672.2.74Z"/><path class="cls-1" d="M249.5,116.44c-.1-1.1-.6-2.2-.3-2.9,2.5-6.4,5-12.9,7.6-19.3a10.9,10.9,0,0,1,6.7-5.9c12.9-4.4,25.4-9.7,38.5-13.5,12.8-3.8,25.1-8.9,37.6-13.8,16-6.4,32.2-12.1,48.5-17.6,14.4-4.9,28.3-10.8,42.4-16.2,9.6-3.7,19.1-7.6,29.1-10a22.85,22.85,0,0,0,3.7-1.2c11.7-4.6,23.4-9.3,35.1-13.8a38.13,38.13,0,0,1,8.1-1.9,2.44,2.44,0,0,1,2.6,2.2,2,2,0,0,1-.1.8,109.27,109.27,0,0,1-5.8,12.5c-1.1,1.8-3.3,3.2-5.2,4.3a58.2,58.2,0,0,1-7.7,3.4c-18,6.9-35.8,14.3-54,20.7-24,8.4-47.5,18.1-71.2,27.5a49.77,49.77,0,0,1-5.8,2.2c-13.7,3.7-26.4,9.9-39.5,15.2-14.7,6.1-29.6,11.5-44.5,17.4-5.7,2.2-11.3,4.7-17,7.2C255.6,114.74,253.1,116.64,249.5,116.44Z"/><path class="cls-1" d="M114.9,199.54c.2,4.1-.8,7.5-1.7,11a138.19,138.19,0,0,1-4.7,14.6A25.13,25.13,0,0,1,99.1,237a23.7,23.7,0,0,1-6.2,3c-4.4,1.4-8.1.2-11-3.6-3.1-4.1-5.8-8.7-6.7-13.7s-1.8-10.2-1.6-15.3a155.75,155.75,0,0,1,4.9-31.9c3.5-13.4,8-26.5,12.6-39.6,6.7-19.2,8.5-38.8,2.1-58.3-4-12.2-9.2-24-17.2-34.2-4.4-5.6-9.3-11-13.9-16.5a44.67,44.67,0,0,1-3.5-4.1c-.6-1-1.1-2.7-.6-3.6,2.8-5.7,5.6-11.4,10.2-16.3a26.5,26.5,0,0,1,10.1,7.4c10.3,11.3,18.4,24.1,23.3,38.7,1.6,4.9,2.9,9.9,4,14.8,4.3,20.1,2.3,39.9-2.1,59.6-2.2,9.9-6.2,19.1-9.7,28.4a282.94,282.94,0,0,0-10.5,33.9,34,34,0,0,0,1.4,19.7,22.32,22.32,0,0,0,2,4.1c4.7,7.5,10.9,8.4,17.2,2.4,2.6-2.5,4.4-5.6,6.5-8.5C111.5,201.94,111.7,199.84,114.9,199.54Z"/><path class="cls-1" d="M301.6,164.54c1-6.3,3.4-11.6,6.2-16.8,1.4-2.7,3.9-4.1,6.5-5.1,6-2.3,11.9-5.1,18-6.8,15.6-4.5,30.3-11.3,45.5-16.8,14.7-5.2,28.9-12.2,44.2-15.8,1.7-.5,3.4-1.1,5.1-1.7,19.6-7.5,39.2-15.3,58.9-22.7,9.6-3.7,19.3-6.8,29.1-10.1a10,10,0,0,1,2.9-.6,2.55,2.55,0,0,1,2.7,2.3V71c-1.4,6.2-3.7,11.9-10.1,14.5-10,4-20,8.1-30.1,11.9-16.8,6.3-33.8,12.2-50.4,19.1s-33.7,12.5-50.5,19c-12.4,4.8-24.7,10.2-37,15.2-11.4,4.6-22.9,9.1-34.3,13.6C306.5,164.84,304.5,165.84,301.6,164.54Z"/><path class="cls-1" d="M237.5,276.74c1.2-.8,2.3-1.7,3.5-2.5,7.6-4.7,15.4-9.3,23.1-13.9,5.7-3.4,11.5-6.7,17.2-10.1,2.9-1.7,5.7-3.5,8.5-5.3,4.7-3.1,9.2-6.5,14-9.5a108.15,108.15,0,0,0,22.9-19.2c4.7-5.1,8.2-11.1,12.2-16.8,2-2.9,3.7-6.3,7.5-7.6,7.5,1.1,12.9,5.8,16.8,12.1,5.2,8.3,9.4,17.1,11,26.9.3,1.5.1,3.2,2.6,3.7a30.54,30.54,0,0,0,1.3-3.2c2.4-9.5,4.7-19,7-28.4,1.7-6.7,5.7-12.1,10.9-16.5,4.2-3.7,7.6-3.4,11.5.5a35.52,35.52,0,0,1,4,4.7c4.1,5.7,3.3,10.8-2.3,16.1-2.4-.2-3.2-2.3-4.6-3.7-4-4.1-7.7-3.9-10.9.6a27.72,27.72,0,0,0-3.4,6.9c-1.7,4.9-3.1,9.8-4.4,14.7-1.5,6-2.5,12.1-4.1,18-1.3,4.7-3,9.2-4.7,13.8-.4,1-1.5,1.8-2.7,3.4-.7-1.4-1.5-2.1-1.7-2.9-2.6-11.3-7-22-11.9-32.5a27,27,0,0,0-3.8-5.7c-1.6-1.8-3.6-2.9-6.2-1.7-3.2,1.7-6,.6-8.6-1.3-2-1.5-4.1-2.9-6.5-4.7-1.4,1.5-2.7,2.8-3.7,4.1-5,6.5-9.9,13.2-14.8,19.7A43.56,43.56,0,0,1,303.9,248c-5.1,3-10,6.3-15.1,9.3a133,133,0,0,1-21.3,10.8c-6.3,2.4-12.3,5-18.6,7.4-2.9,1.1-5.8,1.9-8.7,2.8a7.38,7.38,0,0,1-2.1,0A13.78,13.78,0,0,0,237.5,276.74Z"/><path class="cls-1" d="M895.5,195c1.4,1.7,2.4,2.8,3.4,3.9,5.3,6.2,10.6,12.6,16.1,18.6a72.82,72.82,0,0,0,9.9,8.5c6.7,4.7,13.6,9.2,19.8,14.7,1.7,1.5,3.4,3.3,6.4,2.2,1.7-2.9.7-5.9-.9-8.5a40.47,40.47,0,0,0-5.9-7.1c-7.2-7-14.5-13.8-21.5-20.9a47.59,47.59,0,0,1-6.4-7.7c-2.7-4.3-1.6-8,3.1-10a46.73,46.73,0,0,1,11.7-3.6c7.6-.9,15.5-1.6,23.1-.1,5.2,1,10.3,2.9,15.4,4.5a7.32,7.32,0,0,1,2.6,1.7c2.5,2.2,5.8,4.2,5.1,8-.6,3.3-4.1,4.1-7.2,5.2-.9-.6-2-1-2.5-1.8-2.3-4.4-6.4-6.7-10.8-8.1-8-2.6-16.2-5-24.8-4.7-1.7.1-3.6.1-4.8,2.4.6,4.1,3.8,6.8,6.7,9.7,5.9,5.7,12,11.3,17.9,16.9a25,25,0,0,1,3.3,3.2,56.77,56.77,0,0,1,5.5,7.4c4.1,6.6,3.3,11-2.5,16.3-3.7,3.4-8.4,4.9-13,6.4a4.53,4.53,0,0,1-3-.4,19.47,19.47,0,0,1-3.9-2.4c-10.9-7.4-21.6-14.7-31.7-23.3a64.78,64.78,0,0,1-10.9-11.9c-3.4-5-3.7-10.5-2.6-16.2C893.6,196.84,894.4,196.34,895.5,195Z"/><path class="cls-1" d="M285.6,481.74c6.1-3.7,12-7.4,18-10.9,5.8-3.4,10.7-7.8,15.6-12.4,9.8-9.5,20-18.5,30.4-27.3,7.5-6.4,16.8-8.7,26.2-10.1a27.68,27.68,0,0,1,15.1,1.8,44.73,44.73,0,0,0,8.1,2.5c6,1.2,11.2-.4,15.2-5.2,2.1-2.6,4.1-5.2,6.3-7.8a8.75,8.75,0,0,1,2.2-2.1,2.25,2.25,0,0,1,2.1-.3,2.17,2.17,0,0,1,.8,1.8c-.3,1.2-.9,2.4-1.3,3.6-.5,2,.2,3.7,2.1,4.3a24.92,24.92,0,0,0,6,1.4c4.3.4,5.6-.6,5.3-5.2a11.91,11.91,0,0,1,4.6-10.8,2.1,2.1,0,0,1,3,.5.52.52,0,0,1,.2.4,16.9,16.9,0,0,1,1.2,4.4c.5,9-3.4,16.5-8.7,23.3-2.2,2.9-5.5,3.7-9.1,2.5a90,90,0,0,1-8.7-3.1,6.2,6.2,0,0,0-5.9.4c-2.2,1.3-4.3,2.9-6.4,4.1-7,4.3-14.4,5.7-22,1.7-9.2-4.7-18.5-3.8-27.6-.2a62.86,62.86,0,0,0-13.6,7.1c-10.8,7.5-21.5,15-30.7,24.5a45.84,45.84,0,0,1-24.9,12.9C287.9,483.94,286.7,484.34,285.6,481.74Z"/><path class="cls-1" d="M184.6,419.84a4.4,4.4,0,0,1-.2,1.6c-2.7,6.2-5.7,11.8-12.8,14.4-13.5,4.9-26.6,11-40.2,15.5-15.1,5-29.6,11.4-44.3,17.6-6.2,2.6-12.2,5.5-18.2,8.2a55.94,55.94,0,0,1-5.7,2.2c-1.1.4-2.9-1.1-2.6-2.1,1.7-6.4,3.7-12.8,7.1-18.6a7.75,7.75,0,0,1,5-3.4c12.1-2.7,23.4-7.5,34.9-11.9,13-4.9,26-9.8,38.9-14.5,2.9-1,5.8-1.9,8.7-2.9,6.1-2,12.2-4.1,18.2-6,2.7-.9,5.3-1.7,8.1-2.4a2.48,2.48,0,0,1,3,1.9C184.6,419.34,184.6,419.54,184.6,419.84Z"/><path class="cls-1" d="M972.9,12.94c-.6,2.2-1.2,3.9-1.7,5.5a15.7,15.7,0,0,1-10.9,11c-6.4,2.1-12.6,4.5-18.8,6.9-11.7,4.6-23.4,9.4-35,14.1a49.77,49.77,0,0,1-5.8,2.2c-13.7,3-26,9.7-38.6,15.5-2.9,1.3-5.6,2.6-8.4,3.9a12.26,12.26,0,0,1-3.2.7c-.2-1.3-.6-2.4-.4-3.2,1.6-4.9,3.3-9.8,5-14.5a8.19,8.19,0,0,1,5.8-5.6c3.7-1.2,7.3-2.6,10.9-3.9,14.3-5.2,28.4-10.4,42.7-15.7a44,44,0,0,1,5.1-1.8c14.7-3.8,28.6-9.8,43-14.8a23.55,23.55,0,0,1,5.9-1.7C969.8,11.44,971.2,12.34,972.9,12.94Z"/><path class="cls-1" d="M552.5,418.84c-3.3,2.2-4.3,5.6-5.9,8.5a66.92,66.92,0,0,1-18.9,22.1c-4.4,3.4-9.2,6.5-14,9.6-2.9,1.9-6.2,3.7-9.3,5.4-8.1,4.4-16,8.9-25.4,10.7-10.3,1.8-20.4,4.8-30.7,7.2-2.3.6-4.8,1.5-7.5,0,.7-.8,1-1.7,1.6-1.9,13.4-4.6,25.8-11.6,38.6-17.4,7.5-3.4,14.9-6.9,22.4-10.3,14.5-6.5,26.5-16.6,37.7-27.7,2.6-2.7,4.3-6.4,6.1-9.8,2.6-4.7,4.7-9.8,9.4-12.9a11.26,11.26,0,0,0,2.4-2.9,22.58,22.58,0,0,1,2.5-2.9c7.5-6.5,13.4-5.5,19,3.1a13.38,13.38,0,0,1,1.7,5.1,49.74,49.74,0,0,1-.3,15.4,13.78,13.78,0,0,1-1.5,4.3c-2.1,4.1-5.2,5.6-9.6,4s-8.7-4.2-13.1-6.4C555.9,420.94,554.1,419.84,552.5,418.84Zm24.6-3.6a7.39,7.39,0,0,0,0-2.1,13.65,13.65,0,0,0-8.5-8.1,4.79,4.79,0,0,0-5.3,2,3.09,3.09,0,0,0-.2,2.8,20.21,20.21,0,0,0,11.5,6.9C575.4,416.84,576.6,415.64,577.1,415.24Z"/><path class="cls-1" d="M499.5,186.84a10.18,10.18,0,0,1,1.8-10.8c4.3-4.9,3.8-9.7,1.4-14.9-2.2-4.9-4.4-9.9-6.5-14.7-1.1-2.6-2.7-4.3-5.8-4.1a7.1,7.1,0,0,1-2.9-.5c-7.5-2.8-8.9-8.1-3.9-14.3,2.7-3.2,5.4-3.8,8.7-1.1,5.2,4.3,9.4,9.5,11.5,16,.8,2.5,1.4,5,2.1,7.5q.9,2.25,1.8,4.2a48.31,48.31,0,0,0,2.3-4.6c1.8-6.4,3.2-13,5.4-19.2a33.88,33.88,0,0,1,5.3-9.2c2.6-3.3,5.5-3.4,8.6-.4a23.51,23.51,0,0,1,3.9,5.6,6,6,0,0,1-.5,5.9,3.18,3.18,0,0,1-4,1.4c-1.7-.9-3.5-2-5-2.9-3.7,1.2-5.3,3.8-6.4,6.7-1,3.1-1.9,6.4-2.8,9.6-1.5,6-2.9,12-4.3,17.9-.8,3.4-.6,4.6,2.2,6.6a34.61,34.61,0,0,1,4.5,2.9,36.32,36.32,0,0,1,6.6,6.4c4.2,5.7,2.2,12.2-4.4,14.9-3.8,1.6-7.8,2.6-11.7,4a40.5,40.5,0,0,0-5.7,2.4,5,5,0,0,0-2.9,5.1,48.93,48.93,0,0,0,1.7,8.3,165.32,165.32,0,0,1,6.4,46.3,47.48,47.48,0,0,1-.5,5.3c-.2.7-.4,1.6-.6,2.3a7.14,7.14,0,0,0-1.5-.8,11.22,11.22,0,0,1-.8-2.6,202.34,202.34,0,0,0-5.4-38c-1.3-5.2-2.3-10.5-3.2-15.8-.6-4.1-.9-8.1.6-12.2s3.8-7.3,8-8.8c1.5-.6,2.9-1.1,4.2-1.7s2.4-1.5,1.8-2.9a3.17,3.17,0,0,0-3.8-2C503.9,184.64,502.1,185.74,499.5,186.84Z"/><path class="cls-1" d="M1147.3,58.74c-1.4-3.4-3.9-4-5.8-5.2-5.8-3.8-7.3-7.2-5-13.6a43.22,43.22,0,0,1,5.8-10.8c2.8-3.7,6.3-6.7,9.5-10a27.65,27.65,0,0,1,11-7,8.82,8.82,0,0,1,11.8,8.3c0,2.9-1.9,7.4-5.2,11.1a24.15,24.15,0,0,1-4.2-2.9c-3-2.5-6.1-2.5-9.2-.5a54.37,54.37,0,0,0-6.2,4.5c-2.2,2.2-1.9,5.2.4,7.5a16.7,16.7,0,0,0,19.7,3c3.9-2.1,7.3-4.8,11-7.1a39.27,39.27,0,0,1,6-3.3,2.45,2.45,0,0,1,3.2,1.5,2.25,2.25,0,0,1,.1,1.4c-.9,4.3-2.5,8.4-6.3,11.1a47.67,47.67,0,0,1-6.4,4.3,319.94,319.94,0,0,0-34.5,23.2,9,9,0,0,1-2.6,1.7c-.8.3-2.2.6-2.8.1a3.8,3.8,0,0,1-.8-2.7,12.13,12.13,0,0,1,4-8.1C1143,63.24,1145.1,60.94,1147.3,58.74Z"/><path class="cls-1" d="M1045.1,222.24c-4.5-1.9-25.1-16.8-31-22.4a18.63,18.63,0,0,1,.7-3.4c3-6.7,6.3-13.4,9.5-20.2a17.68,17.68,0,0,1,2.1-3.2c1.2-1.6,2.8-2.4,4.7-1.5a107.4,107.4,0,0,1,27.3,18.4,6.36,6.36,0,0,1,1.7,7c-2.8,8.7-7.5,16.3-12.6,23.7C1047,221.34,1046.2,221.54,1045.1,222.24Z"/><path class="cls-1" d="M249.9,460.24c1.2-5,2.3-9.9,3.7-14.8a135.21,135.21,0,0,1,4.1-13.3,18.93,18.93,0,0,1,4.1-6.4c2.9-3,7.1-3.1,10.5-.6a11.08,11.08,0,0,1,4.5,7c.5,2.3,0,3.1-3.4,7.2-2.4.5-3.6-1.6-5.3-2.6-3.1-1.8-5.5-1.4-7,1.7a44.76,44.76,0,0,0-3,8.7c-1.6,6.3-2.8,12.5-4.3,18.8-.9,3.7-2.1,7.4-3.3,11a12,12,0,0,1-1.9,2.7c-2.6-.3-2.9-1.9-3.3-3.3-1.7-4.9-3.2-9.8-5.2-14.5a86,86,0,0,0-4.8-9.6,5.11,5.11,0,0,0-5.1-2.9c-6.5.6-9.5-3.9-12.7-8.4,1.2-4.2,3.8-7.4,6.3-10.7,1.2-1.7,2.9-1.8,4.8-.9,5.9,2.8,9.7,7.5,12.4,13.3,2.1,4.4,3.6,9,5.4,13.5.6,1.6,1.5,3,2.2,4.5Z"/><path class="cls-1" d="M1091.3,272.14c.7-2.3.8-3.3,1.4-4,2.9-3.2,5.9-6.4,9-9.5a92.8,92.8,0,0,0,13.2-16.9,52,52,0,0,0,4.3-8.9,15.17,15.17,0,0,0,.2-6.7c-1.1-4.9-5-7.2-9.9-6.2-1.9.4-3.9,1.3-5.8,1.8a24.47,24.47,0,0,1-3.7.8c-.6-1-1.2-1.7-1.1-2.3a31.26,31.26,0,0,1,4.6-12.9,18.5,18.5,0,0,1,19.6-7.4c5,1.4,7.7,4.9,8.4,9.9.8,6.2.6,12.4-2.2,18-4.1,7.9-8.7,15.7-13,23.5a11.26,11.26,0,0,1-2.4,2.9C1111,257.64,1098,268,1091.3,272.14Z"/><path class="cls-1" d="M684.1,485.84c-.6-1.1-1.5-2.1-1.2-2.8a52.59,52.59,0,0,1,3.6-9.3,7.39,7.39,0,0,1,3.4-2.9c3.5-1.7,7.1-3,10.7-4.4q26.25-9.75,52.7-19.4c2.9-1,5.8-2.1,8.7-2.9a12.09,12.09,0,0,1,3.8-.6,2.5,2.5,0,0,1,2.5,2.6c0,.2,0,.5-.1.6a13.58,13.58,0,0,1-6,7.7,27.3,27.3,0,0,1-4.8,2.5c-14.2,5.3-28.4,10.5-42.4,15.9-8.7,3.3-17,7.2-25.5,10.9C687.8,484.34,686.2,485,684.1,485.84Z"/><path class="cls-1" d="M247.4,67.64a15.14,15.14,0,0,1,1.7-3c5.9-7.5,11.9-14.7,17.7-22.3A35.43,35.43,0,0,0,271,35a19.7,19.7,0,0,0,1.5-5.9c.3-6-4.2-9.6-10-8.3-2.4.6-4.8,1.4-7.6,2.1-.2-1.5-.6-2.6-.4-3.3a93.46,93.46,0,0,1,3.8-9.2c1.7-3.7,4.8-5.9,8.6-7.3a12.5,12.5,0,0,1,15.5,6.4,17.2,17.2,0,0,1,1.4,11.1c-2.1,8.8-5.5,17.1-11.3,24.1-4.8,5.8-9.9,11.2-14.9,16.7C254.2,64.94,253.1,65.44,247.4,67.64Z"/><path class="cls-1" d="M1034.8,328.74a39.86,39.86,0,0,1-1.2,5.8,152.31,152.31,0,0,0-5.3,20.1,79,79,0,0,0-1.3,16.1,17.47,17.47,0,0,0,3.8,10.7,4.15,4.15,0,0,0,5.5,1.3,65,65,0,0,0,6.1-4.6c1.1-.9,2.2-1.8,3.7-2.9.4,1.3,1,2,.8,2.6-1.5,4.6-3,9.3-4.8,13.8-1.2,2.9-3.5,5-6.1,6.8a7.38,7.38,0,0,1-9.3,0,13,13,0,0,1-5.7-7.9c-1.9-7.1-1.6-14.3-.8-21.5,1.5-13.4,6.8-25.8,11.5-38.3.3-.8,1.3-1.4,2-2.1A5,5,0,0,0,1034.8,328.74Z"/><path class="cls-1" d="M649.7,201.94c-1.8,9.2-3.8,17-10.1,22.9a7.65,7.65,0,0,1-7.1,2c-5.2-.8-9.4-4.8-10.4-11a50.45,50.45,0,0,1-.6-14.5,118,118,0,0,1,12.7-41.8c.6-1.2,1.1-3,3.2-2.3,1.1,1.9-.2,3.5-.8,5-3.8,8.6-5.6,17.6-7.1,26.7a47.06,47.06,0,0,0-.6,9.9,21.68,21.68,0,0,0,1.8,7.5c2.5,5.5,7.4,6.4,11.8,2.4,1.5-1.4,2.6-3.2,4-4.7C647,203.44,647.9,203.14,649.7,201.94Z"/><path class="cls-1" d="M820.7,466.44c-.7,7.6-3.3,15.8-6,20a13.18,13.18,0,0,1-14.1,5.5,7.29,7.29,0,0,1-4.6-3.8,22.33,22.33,0,0,1-3.2-11c0-6.4-.6-12.8,1.4-19.1a65.85,65.85,0,0,0,1.4-7.5c.9-10.2,5.8-19.1,10-28.1a8.08,8.08,0,0,1,1.6-1.6,3.28,3.28,0,0,1,1,0c.1.6.6,1.4.4,1.9-.9,2.9-2,5.8-3.2,8.7a130.09,130.09,0,0,0-6.3,25.3,28.79,28.79,0,0,0,1,13c2.1,7.2,8.9,8.7,14.3,3.4C816.3,471.34,817.1,468.24,820.7,466.44Z"/><path class="cls-1" d="M747.5,68.34c-.4,1.3-.6,2.5-.9,3.7-1.9,6.1-3.9,12.2-5.9,18.3-2.6,7.6-2.9,15.6-2.5,23.6a22.43,22.43,0,0,0,.9,4.5c2.1,6.6,7.7,8.2,13.2,3.7,1.1-1,2.2-2.2,3.2-3.3.6-.6,1.4-1.3,2-1.9.6.6,1.3.9,1.3,1.2a36.45,36.45,0,0,1-5.2,15.9,21.71,21.71,0,0,1-3.8,4.8c-4.6,4.1-10.6,3.5-14.2-1.3a13.45,13.45,0,0,1-3-6.9c-.6-5.3-1.3-10.8-.7-16.1a135.65,135.65,0,0,1,11.8-42.8C744.2,70.14,744.6,68.14,747.5,68.34Z"/><path class="cls-1" d="M154.9,128.24c-.6,1.7-1,2.9-1.5,4a144.09,144.09,0,0,0-7.2,25.9,20.84,20.84,0,0,0,1.2,12.1,12.75,12.75,0,0,0,3.1,4.2,4.45,4.45,0,0,0,6.3.4c1.7-1.2,2.9-2.9,4.5-4.1a19.87,19.87,0,0,1,2.9-1.6c.9,3.5-.6,6-1.5,8.6a22.58,22.58,0,0,1-5.2,9.3c-6.2,6.1-14.3,4-16.3-4.6a54.92,54.92,0,0,1-1-11.4c-.2-14.2,4-27.3,10.3-39.7C151.3,129.84,151.8,128.14,154.9,128.24Z"/><path class="cls-1" d="M256.7,161a23.76,23.76,0,0,1-.6,3.7c-1.5,5.7-3,11.4-4.6,17.1-1.3,4.8-1,9.7-.7,14.5a10.83,10.83,0,0,0,2.7,6.3c2.6,2.9,4.8,3.1,8,.6.8-.6,1.5-1.5,2.2-2.1a19.4,19.4,0,0,1,2.4-1.5c.5.9,1.5,1.8,1.2,2.4-1.6,4.3-3.3,8.6-5.2,12.8a8.91,8.91,0,0,1-3.1,3.3,7.62,7.62,0,0,1-10.4-.9,15.19,15.19,0,0,1-3.7-7.5,47.4,47.4,0,0,1-.3-16.8,107.12,107.12,0,0,1,8-28C253.4,163,254.1,161.24,256.7,161Z"/><path class="cls-1" d="M1128.9,148.74c-.9,7.3-3,13.8-8.8,18.8-3.3,2.9-6.4,2.6-9.7-.4a13.23,13.23,0,0,1-4.5-8.7,55.93,55.93,0,0,1-.5-12.2c1.3-10.2,3.3-20.3,7.5-29.6a14,14,0,0,1,1.6-2.6,1.42,1.42,0,0,1,1.4-.4c.6.4,1.3,1,1.3,1.6a22.38,22.38,0,0,1-1,3.7,68.55,68.55,0,0,0-3.9,25,17.86,17.86,0,0,0,1.8,7.3c1.6,2.9,5.1,4.9,9,1.5C1124.8,151.14,1125.4,148.24,1128.9,148.74Z"/><path class="cls-1" d="M431.2,263.44a10.44,10.44,0,0,1,1.1-2.4c3-3.8,6.2-7.5,9.2-11.3a55.91,55.91,0,0,0,5.5-8.2,13.16,13.16,0,0,0,1.5-5.8c.2-4.1-1.8-6.1-6-6.3-1.6-.1-3,.2-4.6.1-2.3-.1-3.5-2.1-2.8-4.4,1.9-5.6,6.1-8.7,11.8-9.8a9,9,0,0,1,10,6.5,16.06,16.06,0,0,1-.4,10.6,101,101,0,0,1-5.9,12.4C447.9,249.84,438,259.54,431.2,263.44Z"/><path class="cls-1" d="M746.8,204.84c1.7-3.6,4.3-6.1,6.6-8.8a42.19,42.19,0,0,0,7.6-12.3,24.15,24.15,0,0,0,1.4-5.9,5.36,5.36,0,0,0-5.2-5.5h-.7l-1.5.3c-1.9.5-4.1,1.9-5.5-.4-1.3-2,.6-3.9,1.4-5.7a14.46,14.46,0,0,1,6.3-7.5c5.2-3,11-1.2,13.4,4.3a12.14,12.14,0,0,1,1,7.5c-.5,2-.6,4.1-1.5,5.9-4.6,10-10.3,19.4-18.5,27.1a14.09,14.09,0,0,1-3.2,1.7C748.1,205.64,747.8,205.34,746.8,204.84Z"/><path class="cls-1" d="M618.6,133.24c.6-.9,1.4-1.9,2-2.9,3.8-4.9,7.6-9.7,11.2-14.6a20.11,20.11,0,0,0,2.9-6.3c1.1-4.1-2.7-8.4-7-7.9a24.54,24.54,0,0,0-2.9.8c-1.3.5-2.8.6-3.4-.6a4.5,4.5,0,0,1-.2-3.6c1.7-4.8,4.4-8.7,9.4-10.5,4-1.6,7.7-.4,9.9,3.2a13.51,13.51,0,0,1,1.8,10.4c-2.9,13-9.4,23.8-20,31.9C621.3,134,620.1,134.64,618.6,133.24Z"/><path class="cls-1" d="M1108.9,494.14c1.7-2.2,2.2-3.2,3-4,5.6-5.4,9.3-12.2,13.1-18.9a14,14,0,0,0,1.3-3.6c1.1-4.1-1.3-7.1-5.5-7.2-1.3,0-2.6.3-3.8.4-3.5.2-4.7-1.5-3.2-4.7a31.79,31.79,0,0,1,3.9-6.6c2.6-3.1,6.1-4.7,10.3-3.7s6.8,4.1,7,9a21.24,21.24,0,0,1-.9,8.3,69.17,69.17,0,0,1-19.7,28.8,12.74,12.74,0,0,1-1.9,1.3C1111.2,493.54,1110.1,493.94,1108.9,494.14Z"/><path class="cls-1" d="M911.9,334.74c-1.8-1-3.9-2.2-5.9-3.2a3,3,0,0,0-4.1.9,26.86,26.86,0,0,0-4.1,7.4c-1.9,6.4-3.4,12.9-5.1,19.3-1.2,4.4-2.4,8.9-3.8,13.3a3.27,3.27,0,0,1-2.3,1.5,3,3,0,0,1-2.1-1.7c-.7-1.8-1.1-4-1.8-5.9-2-5.5-4.1-11-6.4-16.5-1.5-3.6-4.1-5.6-8.5-5.2a10.55,10.55,0,0,1-5.8-1.3c-6-3.3-6.7-6.6-3.3-12.6,3.9-6.6,7.5-7.5,13.6-2.7a26.48,26.48,0,0,1,5.7,6.3,43.46,43.46,0,0,1,7.3,18.4c.1,1.2-.1,2.9,1.6,3.1,2,.3,2.2-1.7,2.6-3,.9-3.2,1.7-6.4,2.4-9.8,1.4-6,2.9-12,5.9-17.4,1.4-2.6,2.9-4.9,5.4-6.4a6.17,6.17,0,0,1,5.9-.3,10.76,10.76,0,0,1,4.7,14.4,3.11,3.11,0,0,1-.4.6C913.2,334.34,912.5,334.44,911.9,334.74Z"/><path class="cls-2" d="M187.4,187.84l-.1.2v11c.5,14.3,1,27.6,1.5,40.3C188.3,222.14,187.9,205,187.4,187.84Zm15.2,184.9c-.8-1.8-1.6-3.6-2.3-5.4,2.7,7.3,6,13.9,11.6,18.2A38.47,38.47,0,0,1,202.6,372.74Zm14.2-23.9a22.62,22.62,0,0,0,12.4,10.3A27.35,27.35,0,0,1,216.8,348.84Zm26.8,11.6h0Z"/><path class="cls-2" d="M654.8,323.14c-5.7-8.4-13.5-13-24-12.9a80.27,80.27,0,0,0-18.3,2.1c-2.5.6-4.9,1.6-7.4,2.2-3.6.9-5.4.1-6.5-3.5a124.14,124.14,0,0,1-3.9-15.7c-2.8-18.6-5.5-37.1-7.5-55.8-1.7-16.8-3.5-33.7-3.4-50.7-.1-3-.4-6.2-.8-9.2-.3-2.5-.6-5.1-.7-7.6-.6-18.7-1-37.5-1.6-56.3-.1-4.6-.6-9.2-.6-13.8-.3-9.8-.5-19.5-.6-29.3,0-1.4.7-2.8,1.4-4.9,2.1,1.6,3.8,2.8,5.3,3.9,1.8,1.3,3.3,3.5,6,2.5,1.8-.6,2.4-3,1.1-6.9-2.2-6.5-4.7-13-7.1-19.5-1.7-4.8-4-9.5-5.2-14.5-2.7-10.2-7.2-19.8-11.5-29.4a7.33,7.33,0,0,0-2.2-3,2.8,2.8,0,0,0-2.8,0,5,5,0,0,0-1.8,2.3c-2.7,7.2-5.2,14.5-7.8,21.7a9.11,9.11,0,0,0-.1,6.1c4.1,11,4.5,22.6,4.7,34.2.2,9.5.7,19,.8,28.4.3,16.8,1.3,33.4,2,50.1,1.6,35.9,4.6,71.7,8.5,107.5,2,19.4,4.7,38.8,8.4,58,.8,4.2,1.1,8.7,1.6,13a4.52,4.52,0,0,1-2.2,4.6c-6.8,3.6-13.3,7.9-20.5,10.5-7.8,2.9-16.3,4.2-24.6,6.2-7.5,1.7-14.3-.3-20.8-3.7s-9.8-8.9-10.8-15.9a53,53,0,0,1-.2-6.9c-.1-2,.1-4.1-.1-6.2-.1-1.6-.9-3.1-2.7-3.2a4.31,4.31,0,0,0-3.2,1.4,27.31,27.31,0,0,0-3.4,6,66,66,0,0,1-29.2,30.8c-13.3,7-25.5,3.9-33.1-8.7-3-5.1-4.4-10.2-1.9-16.1a31.31,31.31,0,0,0,1.6-7.5,2.28,2.28,0,0,0-.3-1.1,2.07,2.07,0,0,0-2.9-.9,24.29,24.29,0,0,0-4.8,3.8c-5.1,5.4-10,11-15,16.6-1.4,1.6-2.5,3.4-4.1,4.6-11.6,8.6-23.3,16.9-38.5,18-8.8.6-17.4.1-25.4-4.2s-13.1-10.8-12.4-20.4a61.5,61.5,0,0,1,1-7.5,31.87,31.87,0,0,0,.6-5.3,3.71,3.71,0,0,0-5.7-2.9,67.53,67.53,0,0,0-6.3,5.7c-5.9,5.7-11.7,11.5-17.7,17.1-2.8,2.6-5.9,4.9-8.7,7.5a57,57,0,0,1-19.6,11.9c-8.3,3.1-16.8,4.2-25.5,4.4h-.7l-4.6.4a23.49,23.49,0,0,1-9.8-1.7,22.62,22.62,0,0,1-12.4-10.3l-.1-.1a44,44,0,0,1-7.5-20.2v-.4c-4.5-59-1.1-109.9-5-157.2l-.7-.3c-.2-6.6-.4-13.2-.7-19.8-1.1-23.6-1.4-47.2-3-70.8a320.14,320.14,0,0,0-7.5-48.7,93.06,93.06,0,0,0-7.5-21.1,44.75,44.75,0,0,0-3.5-6c-4.2-5.8-8.7-6.1-13.2-.6a61.26,61.26,0,0,0-7.2,11c-5.5,10.3-8.6,21.5-10.5,32.9a83.27,83.27,0,0,0-1.1,9.9c-.1.5.7,1.4,1.3,1.6a1.92,1.92,0,0,0,2-.6c.9-1.6,1.8-3,2.6-4.7,2.7-5.3,5.2-10.7,7.8-15.9a23.11,23.11,0,0,1,2.9-4.5,2.54,2.54,0,0,1,1-.8,2.57,2.57,0,0,1,3.4,1.4,55.55,55.55,0,0,1,2.9,7.1,223,223,0,0,1,9.3,49.9c1.6,21,2.1,42.1,3.1,63.2.3,6.1,1.1,12.2,1.3,18.4.2,5.2.3,10.3.5,15.5.5,17.2.9,34.3,1.3,51.5.7,18.9,1.3,36.7,1.8,54.6.2,9.3.4,18.6.5,28.2.2,18-3.6,20.8-9.7,24.2-6.3,3.4-15.1,6.3-23.4,6.3h-3.2v-.4h-3.2c-11.3,0-23.6-5-29.5-12.7-8.5-10.7-14.5-20.6-24.6-31.7C87,296.64,76.9,286.54,65.8,278H64c-10.5,11.5-25,24-40,37.4-9.1,7.9-17,20.4-20.4,34.7-2.2,8.7-3.6,16.4-3.6,24.6,0,14.7,7.7,38.8,17.2,64.8,8.9,24.2,17.8,49.9,22.4,71.3H42c2-8.5,4.2-20.2,4.2-29.7,0-10.3-10.5-43.6-21.4-77.5-6.9-21.6-9.9-35.3-9.9-44,0-8.1,7.5-19,23.6-31.5.6,34.7,23.4,62.6,51.3,62.6,13.1,0,24.2-15.1,25.8-30.5l1.2-.4c8.7,12.3,17.8,18.5,33,18.8a16.43,16.43,0,0,0,4,.4h3.4c19.6,0,32.7-9.9,39-21.4l.5.1c.2.5.3.9.5,1.4v.1c1,2.9,1.9,5.8,2.9,8.5,0,.1.1.1.1.2.7,1.8,1.5,3.6,2.3,5.4a39.51,39.51,0,0,0,9.3,12.8,31.83,31.83,0,0,0,20.7,8c1.6.1,3,.3,4.6.5a52.72,52.72,0,0,0,24.3-2.7,66.31,66.31,0,0,0,26.4-16.8q10.05-10.65,20.4-21a16.55,16.55,0,0,1,3.6-2.8c.1,0,.2-.1.3-.1a2.14,2.14,0,0,1,3,1.2,17.74,17.74,0,0,1,1.1,4.4c.6,3.3,1,6.6,1.7,9.9,2.4,11.7,10.4,18,21.3,20.9,13.3,3.5,26.1,1.9,37.7-5.9,1.9-1.3,4-2.4,5.8-3.8,9.4-7.2,19.3-13.7,25.6-24.2.7-1.3,2.1-2.1,4.2-4.2,1.1,3.2,1.7,5.1,2.3,7a40.3,40.3,0,0,0,9,16.8,30,30,0,0,0,41.7,3.5c7.9-6.4,14.5-13.8,18.9-23.1,1-2.2,1.6-5,4.5-5.8,2.8.7,3.1,3.2,3.9,5.3,1.2,3.4,1.9,7,4.7,9.6a136.21,136.21,0,0,0,12.2,10.6c4.1,3.2,9.2,4.4,14.5,4.6a60.22,60.22,0,0,0,27.8-5.2c11-4.8,22.9-8,32.9-15.1.2-.1.4-.3.6-.4,2.6-1.2,4.5-.8,5.9,1.7,4.6,8.6,11.9,14.7,18.2,21.8a36.85,36.85,0,0,0,14,9.4c15.6,6.2,28.5.9,35.7-14.3a45.65,45.65,0,0,0,4.1-17.1C664.2,345.84,661.9,333.84,654.8,323.14ZM91.6,362.94A35.58,35.58,0,0,1,66.8,353c-9.1-8.1-15.3-19.2-15.3-32.7,0-5.9,8.7-11.7,11.9-14.9,17.6,13.5,26.6,24.2,34.3,34.3,5.3,6.9,7.1,12.1,7.1,15.7C104.8,359.74,98.7,362.94,91.6,362.94Zm548.7-5.4a18,18,0,0,1-6.1.5c-6.4-1.3-12.3-3.5-16.8-8.5-.5-.5-.6-1.3-1.1-2.6a6.57,6.57,0,0,1,1.7-1.2c5.8-1.7,11.6-2.1,17.4-.2a12.52,12.52,0,0,1,7.5,6.2C644.4,354.44,643.3,357,640.3,357.54Z"/></g></g></svg>